<svg width="650" height="25" viewBox="0 0 650 25" fill="none" xmlns="http://www.w3.org/2000/svg">
<path d="M627.157 15.4698C628.182 15.5294 629.169 15.6017 630.213 15.6425C631.423 15.6896 632.672 15.7053 634.032 15.6833C633.156 15.6174 632.262 15.5514 631.181 15.4698C633.026 15.4698 634.721 15.4698 636.062 15.4698C636.398 15.3473 636.621 15.2656 636.901 15.1619C635.187 15.0928 633.51 15.0269 631.833 14.9609C631.889 14.9169 631.927 14.8698 631.982 14.8258C633.212 14.8604 634.423 14.8981 636.007 14.9421C635.429 14.8792 635.131 14.8447 634.758 14.807C637.59 14.5494 636.118 14.3264 634.293 14.0783C636.603 14.2416 638.578 14.3829 640.515 14.5243C640.515 14.3924 640.515 14.295 640.515 14.1442C639.826 14.0877 638.783 14.0029 637.721 13.9181C637.776 13.8898 637.832 13.8615 637.888 13.8333C639.789 13.9338 641.689 14.0343 643.589 14.1348C643.645 14.1128 643.682 14.0908 643.738 14.0688C641.912 13.9495 640.087 13.8301 638.261 13.7139C638.317 13.6825 638.354 13.6511 638.41 13.6197C640.143 13.7076 641.894 13.7956 643.626 13.8804C643.682 13.8521 643.72 13.8238 643.775 13.7956C642.192 13.7013 640.608 13.604 638.783 13.494C639.174 13.4186 639.621 13.3307 640.161 13.227C640.161 13.1862 640.161 13.1108 640.161 13.0323C641.111 13.0543 642.061 13.0763 643.123 13.1014C643.254 13.0731 643.515 13.0103 643.775 12.9475L643.757 12.9538C643.291 12.58 641.782 12.6082 639.844 12.6554C640.832 12.7402 641.484 12.7999 642.49 12.8878C640.869 12.8752 639.379 12.982 639.304 12.58C639.286 12.5172 638.41 12.4638 637.795 12.3884C637.758 12.3601 637.665 12.2753 637.609 12.2188C639.733 12.2407 642.211 12.2659 644.688 12.291C644.707 12.269 644.726 12.2502 644.744 12.2282C643.72 12.1905 642.714 12.1528 641.689 12.1151C641.689 12.09 641.67 12.0648 641.67 12.0366C642.471 12.0209 643.291 12.0083 644.279 11.9895C643.422 11.9298 642.714 11.8795 641.838 11.8198C642.266 11.7633 642.564 11.7193 642.844 11.6816C642.415 11.6188 641.931 11.5434 641.26 11.4398C642.639 11.4649 643.72 11.4838 645.098 11.5089C644.707 11.4146 644.558 11.377 644.185 11.2827C645.545 11.2827 646.663 11.2827 647.781 11.2827C647.781 11.2545 647.781 11.2262 647.781 11.1979C646.738 11.1822 645.694 11.1665 644.632 11.1508C644.632 11.1288 644.614 11.1068 644.614 11.0848C646.216 11.0566 647.818 11.0314 649.607 11C649.16 10.9309 648.787 10.8712 648.247 10.7864C648.917 10.7959 649.346 10.8021 649.793 10.8053C648.582 10.6639 647.781 10.3216 645.471 10.5697C646.067 10.5948 646.533 10.6137 646.98 10.6325C646.85 10.6576 646.719 10.6796 646.589 10.7048C644.241 10.7079 642.565 10.4723 641.055 10.1802C641.13 10.1582 641.223 10.1362 641.298 10.1174C641.633 10.1614 641.931 10.2116 642.285 10.2493C642.695 10.2933 643.123 10.3278 643.533 10.3718C643.999 10.4158 644.446 10.466 645.005 10.5226C645.117 10.4064 645.247 10.2713 645.471 10.0357C646.011 10.1331 646.291 10.2305 646.682 10.243C647.539 10.2776 648.694 10.331 649.271 10.2587C649.83 10.1928 649.905 9.9729 649.998 9.81584C650.035 9.75616 649.532 9.68392 648.992 9.6368C649.048 9.69962 649.104 9.76244 649.178 9.83469C648.508 9.82212 647.911 9.81271 647.166 9.80014C647.166 9.63367 647.166 9.46405 647.166 9.29757C646.924 9.21276 646.645 9.10283 646.272 9.00545C645.918 8.91122 645.452 8.83269 645.042 8.74474C645.098 8.82641 645.136 8.90808 645.191 8.98661C644.875 9.06513 644.539 9.14366 644.241 9.21276C643.459 9.14994 642.825 9.09654 641.968 9.02743C641.726 9.09968 641.465 9.17192 641.186 9.25359C637.143 8.82641 632.746 8.77301 628.461 8.6191C629.002 8.6191 629.56 8.6191 630.101 8.6191C630.138 8.59397 630.194 8.5657 630.231 8.54057C629.151 8.37096 627.25 8.62224 626.207 8.44006C626.263 8.41493 626.3 8.3898 626.356 8.36467C627.101 8.35839 627.846 8.34897 628.573 8.34268C628.629 8.24531 628.666 8.18249 628.685 8.11653C628.033 8.36153 626.896 8.15736 625.983 8.19505C624.698 8.25159 623.226 8.16364 621.829 8.1448C621.493 8.13851 620.841 8.15736 620.841 8.16678C620.804 8.37724 620.04 8.27987 619.519 8.27672C618.214 8.2673 616.892 8.25473 615.588 8.24217C615.513 8.24217 615.42 8.22333 615.345 8.21076C615.513 8.16365 615.681 8.11653 615.886 8.06313C615.532 8.03801 615.29 8.0223 615.047 8.00345C615.588 7.92807 616.165 7.89351 616.65 7.91236C618.177 7.97204 619.332 7.83697 620.338 7.67364C621.065 7.55428 620.935 7.53229 621.736 7.60768C622.257 7.65793 622.76 7.70505 622.704 7.52915C621.922 7.46947 621.139 7.40979 620.338 7.34697C620.376 7.32184 620.394 7.29357 620.432 7.26845C621.456 7.26845 622.462 7.26845 623.655 7.26845C623.207 7.39095 622.928 7.46319 622.649 7.53857C623.319 7.60768 623.99 7.67678 624.754 7.75531C625.089 7.66422 625.424 7.56685 625.797 7.46633C625.257 7.43492 624.847 7.4098 624.437 7.38781C624.456 7.3721 624.474 7.35639 624.493 7.34069C625.164 7.34069 625.816 7.34069 626.505 7.34069C626.449 7.37838 626.375 7.41293 626.319 7.44748C627.995 7.50402 629.635 7.56056 631.293 7.61396C631.274 7.64537 631.256 7.67678 631.256 7.70819C630.753 7.70819 630.231 7.69248 629.784 7.71447C629.486 7.73018 629.281 7.80242 629.039 7.84954C630.231 7.95633 629.057 8.03172 628.927 8.12282C629.169 8.20762 629.411 8.28928 629.84 8.44006C630.008 8.31127 630.157 8.22647 630.213 8.13852C630.287 8.03486 630.306 7.93121 630.343 7.81813C631.219 7.83384 631.833 7.8464 632.43 7.85897C632.411 7.88096 632.411 7.90294 632.392 7.92493C631.852 7.94692 631.312 7.9689 630.697 7.99089C631.964 8.06627 633.082 8.13224 634.032 8.19192C634.237 8.1291 634.386 8.08198 634.553 8.03172C634.777 8.06942 635.15 8.09769 635.205 8.14166C635.373 8.27359 635.429 8.41179 635.541 8.56571C634.46 8.55314 633.51 8.54372 632.56 8.53429C632.802 8.67564 634.162 8.76987 635.448 8.67878C635.913 8.64737 636.156 8.50288 636.733 8.34269C637.292 8.39922 638.13 8.48718 638.969 8.57513C638.969 8.52487 638.969 8.48089 638.969 8.50916C640.143 8.54999 641.316 8.59083 642.527 8.63167C642.509 8.63795 642.415 8.68193 642.322 8.72276C642.695 8.6725 643.068 8.62224 643.571 8.55627C643.757 8.57198 644.129 8.60026 644.502 8.63167C644.129 8.54372 643.775 8.45577 643.217 8.31756C643.943 8.33013 644.465 8.33955 644.968 8.34583C645.229 8.01602 644.782 7.74589 642.788 7.62024C643.123 7.61396 643.44 7.60768 643.925 7.59825C643.496 7.52287 643.179 7.46633 642.844 7.41293C644.968 7.35011 647.073 7.29043 649.402 7.22132C648.936 7.10825 648.768 7.06427 648.452 6.98574C648.955 6.99203 649.271 6.99517 649.57 7.00146C649.644 6.97947 649.7 6.95748 649.774 6.9355C648.973 6.86325 648.21 6.74074 647.39 6.73132C645.583 6.70619 645.061 6.53658 645.154 6.2476C645.173 6.18164 645.154 6.11568 645.154 6.0717C643.477 5.84555 641.894 5.62881 640.31 5.41208C640.329 5.39951 640.329 5.38381 640.347 5.37124C640.906 5.40894 641.447 5.44349 642.006 5.48118C642.08 5.34298 642.136 5.21419 642.211 5.06656C641.67 5.08855 641.149 5.11054 640.422 5.13881C640.888 5.04143 641.186 4.97861 641.708 4.86867C641.018 4.88752 640.571 4.90323 640.105 4.91265C639.807 4.91893 639.248 4.92835 639.23 4.91579C638.745 4.58911 636.919 4.7022 635.634 4.55771C636.156 4.5263 636.491 4.50745 636.547 4.50745C635.895 4.39751 635.224 4.28758 634.553 4.1745C633.473 3.98918 632.076 3.9829 630.958 4.08969C629.3 4.24675 628.145 4.03001 626.524 4.00802C627.194 3.9452 627.623 3.90437 628.461 3.8227C626.915 3.87296 625.872 3.90751 624.959 3.93578C624.474 3.80385 624.064 3.7002 623.617 3.5777C624.027 3.51174 624.512 3.4332 625.015 3.35468C623.897 3.35782 623.04 3.42693 622.891 3.60597C622.22 3.64366 621.68 3.67507 621.139 3.70648C621.177 3.73161 621.214 3.75988 621.233 3.78501C619.891 3.68764 618.55 3.59026 617.227 3.48975C617.246 3.46462 617.246 3.43949 617.264 3.4175C618.848 3.4175 620.45 3.4175 622.034 3.4175C622.034 3.40494 622.015 3.38923 622.015 3.37667C620.078 3.34526 618.14 3.31384 616.202 3.28557C616.351 3.23218 616.519 3.20705 616.687 3.21019C618.513 3.22904 620.357 3.24474 622.183 3.27615C623.114 3.29186 624.027 3.33583 624.959 3.36724C625.22 3.4175 625.462 3.46776 625.723 3.51802C625.816 3.50545 625.909 3.48975 626.002 3.47718C625.797 3.42693 625.592 3.37353 625.387 3.32328C628.163 3.19135 630.734 3.3641 630.827 3.7002C631.368 3.66564 631.908 3.6311 632.784 3.57456C632.187 3.52744 631.815 3.49918 631.349 3.46148C631.722 3.4018 632.094 3.3484 632.523 3.28244C631.815 3.26045 631.219 3.24475 630.622 3.2259C630.511 3.25731 630.362 3.32327 630.268 3.32013C629.411 3.29186 628.573 3.24788 627.716 3.21647C626.71 3.17878 625.704 3.15052 624.698 3.11596C624.735 3.07827 624.772 3.04057 624.81 3.00288C626.617 3.05628 628.443 3.10968 630.25 3.15993C629.598 3.07827 628.983 2.94321 628.256 2.92122C626.039 2.85526 623.804 2.82698 621.568 2.79557C620.618 2.78301 619.705 2.97462 618.662 2.80186C618.252 2.73275 617.544 2.72333 616.743 2.67307C616.333 2.68878 615.532 2.72333 614.731 2.75788C614.526 2.60711 614.339 2.48461 614.172 2.35897C614.097 2.35897 614.023 2.36211 613.948 2.36211C613.892 2.45948 613.836 2.55999 613.78 2.69192C612.29 2.62281 610.986 2.58512 609.458 2.70134C608.266 2.79243 606.57 2.65737 605.136 2.55685C606.366 2.56942 607.595 2.57884 608.825 2.5914C608.843 2.56627 608.881 2.538 608.899 2.51287C607.837 2.46262 606.775 2.38724 605.695 2.36839C601.168 2.29614 596.64 2.24903 592.113 2.17364C590.157 2.14223 588.238 2.05114 586.301 2.01659C585.239 1.99774 584.158 2.05428 583.077 2.05743C580.972 2.06057 578.867 2.0637 576.762 2.04486C574.489 2.02287 572.216 1.97261 569.924 1.93806C566.478 1.88781 563.031 1.84069 559.51 1.79043C559.622 1.74332 559.752 1.68992 559.864 1.6428C559.715 1.62082 559.622 1.60197 559.547 1.60197C558.001 1.66479 556.641 1.77473 554.834 1.66479C553.045 1.55485 550.94 1.62395 548.984 1.59882C546.767 1.57055 544.55 1.50459 542.333 1.48575C538.588 1.45748 534.843 1.4512 531.098 1.43863C529.776 1.43549 528.472 1.43235 527.149 1.43549C526.609 1.43549 526.068 1.44805 525.547 1.50145C528.509 1.53914 531.49 1.57997 534.452 1.61767C534.452 1.63965 534.452 1.66165 534.452 1.68049C532.701 1.68049 530.949 1.68049 529.18 1.68049C529.161 1.70562 529.124 1.73075 529.105 1.75588C530.521 1.79985 531.937 1.85953 533.371 1.8878C535.756 1.93492 538.141 1.9789 540.525 1.99774C542.277 2.01031 544.028 1.97575 545.779 1.96319C546.04 1.96005 546.338 1.94748 546.543 1.96319C548.853 2.15165 551.35 2.1328 553.79 2.17992C553.921 2.18306 554.033 2.20819 554.107 2.21761C553.66 2.26787 553.176 2.31813 552.71 2.37153C552.803 2.40294 552.896 2.43435 552.971 2.46576C544.475 2.4155 535.998 2.36524 527.503 2.31498C527.503 2.28985 527.503 2.26473 527.503 2.2396C531.117 2.2396 534.731 2.2396 538.327 2.2396C527.41 2.01344 516.474 2.01658 505.556 2.1862C505.556 2.21133 505.537 2.23646 505.537 2.25845C509.748 2.25845 513.958 2.25845 518.169 2.25845C518.169 2.293 518.15 2.32755 518.15 2.36211C515.188 2.36211 512.207 2.37153 509.245 2.35896C506.86 2.3464 504.476 2.30556 502.091 2.28043C500.805 2.26787 499.52 2.25216 498.234 2.24902C494.769 2.23646 491.322 2.23332 487.857 2.21447C487.429 2.21133 487.019 2.1328 486.348 2.06055C488.602 2.11709 490.428 2.16108 492.235 2.20505C492.235 2.19249 492.254 2.17678 492.254 2.16422C491.453 2.12652 490.67 2.08569 489.869 2.048C489.925 2.01659 489.981 1.98203 490.037 1.95062C490.633 1.96946 491.211 2.00402 491.807 2.00087C493.186 1.99459 494.564 1.96633 496.073 1.94748C496.073 1.81556 496.073 1.67421 496.073 1.49202C497.657 1.57369 499.203 1.65536 500.768 1.73703C500.768 1.75902 500.749 1.781 500.749 1.80299C499.632 1.80299 498.495 1.80299 497.377 1.80299C497.359 1.83126 497.321 1.85639 497.303 1.88466C497.843 1.91921 498.383 1.98517 498.924 1.98517C502.072 1.98203 505.221 1.97261 508.351 1.94434C510.922 1.91921 513.474 1.85011 516.045 1.82812C517.647 1.81242 519.231 1.79043 520.833 1.97261C521.541 2.05113 523.106 1.87523 524.28 1.81556C524.261 1.78729 524.242 1.76216 524.224 1.73389C523.944 1.70877 523.665 1.68363 523.274 1.64594C523.684 1.5894 523.982 1.54543 524.485 1.47632C524 1.44806 523.684 1.43234 523.087 1.40093C523.795 1.3067 524.354 1.23132 524.839 1.16535C524.503 1.14022 523.944 1.09939 523.367 1.05856C523.404 1.03343 523.423 1.00516 523.46 0.980032C525.137 0.980032 526.795 0.980032 528.472 0.980032C528.472 1.00516 528.49 1.03029 528.49 1.05542C527.764 1.08683 527.018 1.12139 526.292 1.1528C529.738 1.31299 533.204 1.37267 536.688 1.16222C536.203 1.14966 535.737 1.14023 535.253 1.12766C535.7 0.989455 535.7 0.989463 540.078 1.05542C539.631 1.06485 539.165 1.07113 538.718 1.08055C538.29 1.08997 537.861 1.10254 537.433 1.11196C537.451 1.14023 537.451 1.1685 537.47 1.19677C539.706 1.19677 541.923 1.19677 544.363 1.19677C543.972 1.14965 543.711 1.12139 543.32 1.07427C543.693 1.02087 543.991 0.976897 544.27 0.936063C544.27 0.910934 544.289 0.885799 544.289 0.860671C542.519 0.838683 540.749 0.813563 539.072 0.791577C539.147 0.769589 539.352 0.716186 539.687 0.628236C538.774 0.665929 538.066 0.694203 537.563 0.71305C537.358 0.782153 537.209 0.882663 537.023 0.885804C535.756 0.895228 534.247 0.964335 533.222 0.870103C530.428 0.609395 527.838 0.914071 525.155 0.892082C522.193 0.863814 519.231 0.866955 516.269 0.854391C514.294 0.844967 512.189 0.753877 510.363 0.844968C508.965 0.914072 507.959 0.895227 506.544 0.807277C507.084 0.741313 507.456 0.700477 507.829 0.656501C507.81 0.634515 507.792 0.612533 507.792 0.593687C504.569 0.643943 501.346 0.69106 497.974 0.741317C498.495 0.788432 499.035 0.838689 499.557 0.888948C499.464 0.914075 499.389 0.945481 499.352 0.94234C497.228 0.866954 495.011 0.838687 493.018 0.70048C491.248 0.577979 489.497 0.54028 487.671 0.527716C487.503 0.527716 487.336 0.565409 487.019 0.606244C487.634 0.62509 488.081 0.640803 488.509 0.653367C488.509 0.675355 488.528 0.697337 488.528 0.716181C486.609 0.731888 484.615 0.8167 482.771 0.750738C478.691 0.606249 474.741 0.73189 470.736 0.807276C469.227 0.835544 467.382 0.986314 466.078 0.659645C465.91 0.61881 465.128 0.609392 464.886 0.643943C463.395 0.857536 462.035 0.574834 460.582 0.618808C459.912 0.637655 459.166 0.577981 458.458 0.555993C458.421 0.587404 458.402 0.61881 458.365 0.650222C459.725 0.716184 461.085 0.782148 462.445 0.84811C462.445 0.860673 462.445 0.873239 462.445 0.888946C461.83 0.888946 461.216 0.898364 460.601 0.885801C459.949 0.873237 459.315 0.844968 458.645 0.857532C462.501 1.25017 466.693 0.948618 470.736 1.06798C469.916 1.0774 469.096 1.08369 468.277 1.09939C467.494 1.1151 466.712 1.14336 465.929 1.16535C465.948 1.18734 465.948 1.21247 465.966 1.23445C469.469 1.26587 472.971 1.29414 476.474 1.32555C476.474 1.35382 476.474 1.38523 476.474 1.4135C476.157 1.4292 475.841 1.44491 475.524 1.45748C475.505 1.47946 475.487 1.50145 475.449 1.52658C476.045 1.53914 476.66 1.55485 477.256 1.56113C477.983 1.56741 478.71 1.56112 479.492 1.61766C478.02 1.64907 476.567 1.69305 475.095 1.70876C473.009 1.7276 470.903 1.74645 468.817 1.72132C468.183 1.71504 466.264 1.8501 467.047 1.46061C467.084 1.44491 466.544 1.36324 466.32 1.36638C465.706 1.37581 464.55 1.42292 464.55 1.44177C464.606 1.61767 464.047 1.54229 463.638 1.536C462.501 1.5203 461.383 1.50145 460.247 1.49831C459.893 1.49831 459.52 1.54228 459.054 1.57369C461.57 1.62081 463.898 1.66478 466.227 1.70876C466.209 1.74017 466.19 1.76844 466.19 1.79985C462.818 1.74959 459.353 1.85953 456.092 1.52029C456.856 1.52029 457.62 1.52029 458.365 1.52029C456.912 1.40093 455.589 1.27529 453.894 1.37581C452.217 1.47318 450.391 1.51715 448.64 1.37266C448.305 1.34439 447.876 1.35067 447.131 1.33183C447.858 1.41978 448.286 1.47318 448.696 1.52344C448.64 1.536 448.566 1.54856 448.51 1.56113C447.187 1.49516 445.771 1.34439 444.597 1.39465C443.61 1.43548 442.716 1.42921 441.821 1.41978C439.679 1.3978 437.555 1.33497 435.431 1.31298C433.121 1.28785 430.792 1.30042 428.482 1.27843C427.401 1.26901 426.358 1.22818 425.371 1.34126C425.24 1.35696 424.942 1.32241 424.383 1.291C425.128 1.25017 425.501 1.23132 425.892 1.20933C425.874 1.1842 425.874 1.16221 425.855 1.13708C418.72 1.38208 411.584 1.27215 404.43 1.291C404.43 1.25645 404.411 1.22189 404.411 1.18734C405.436 1.18734 406.442 1.18734 407.653 1.18734C405.883 0.829257 404.151 1.21561 402.474 1.12138C402.735 1.15279 403.014 1.1842 403.275 1.21561C403.256 1.24388 403.256 1.26901 403.238 1.29728C398.617 1.24074 393.978 1.18419 389.358 1.12766C389.377 1.11509 389.414 1.10253 389.432 1.08996C388.985 1.12452 388.538 1.1842 388.072 1.18734C386.358 1.1999 384.644 1.1999 382.93 1.19048C381.216 1.18106 379.502 1.13394 377.807 1.14964C375.497 1.16849 373.224 1.24702 370.914 1.27215C369.982 1.28157 368.92 1.25644 368.101 1.18106C366.256 1.01144 364.542 1.04599 362.325 1.19676C363.108 1.23759 363.443 1.25645 363.797 1.27215C363.778 1.28786 363.76 1.30356 363.741 1.31612C362.94 1.29727 362.139 1.27529 361.17 1.25016C361.524 1.19362 361.729 1.16221 361.934 1.1308C361.654 1.09311 361.375 1.02087 361.114 1.02715C359.978 1.04914 358.841 1.11195 357.705 1.11823C357.109 1.12137 356.512 1.02086 355.879 0.995736C353.606 0.907786 351.333 0.829253 349.042 0.753866C348.222 0.725598 347.384 0.716173 346.564 0.684763C346.359 0.675341 346.228 0.606243 346.322 0.631371C345.278 0.631371 344.496 0.643932 343.751 0.628227C342.614 0.603098 341.496 0.53714 340.36 0.524576C339.913 0.518293 339.447 0.606243 339.149 0.709898C339.969 0.709898 340.788 0.709898 341.608 0.709898C341.608 0.725603 341.627 0.738161 341.627 0.753866C341.198 0.769573 340.77 0.785278 340.229 0.804125C341.329 0.901499 342.316 0.986309 343.285 1.07112C343.248 1.10567 343.21 1.14336 343.173 1.17791C341.329 1.17791 339.503 1.17791 337.789 1.17791C337.901 1.18734 338.18 1.20618 338.646 1.24387C336.242 1.20618 334.026 1.15593 331.827 1.14022C330.691 1.1308 329.536 1.20305 328.418 1.19362C326.424 1.17478 324.58 1.35067 322.624 1.31297C320.574 1.27214 318.544 1.1842 316.476 1.1308C314.724 1.08368 312.954 1.05541 311.203 1.01458C308.371 0.948616 305.558 0.87637 302.689 0.747587C303.36 0.731882 304.049 0.713034 304.72 0.697329C304.738 0.678482 304.757 0.659638 304.757 0.640791C302.503 0.606239 300.23 0.571682 297.901 0.53713C298.013 0.508861 298.218 0.464891 298.385 0.424057C297.64 0.326685 296.895 0.232448 296.15 0.135076C296.28 0.109947 296.411 0.0879629 296.858 1.31739e-05C294.641 0.0596921 292.778 0.113092 290.635 0.169632C291.511 0.219888 292.126 0.254442 292.74 0.288993C292.759 0.30784 292.778 0.329828 292.815 0.348674C291.25 0.408355 289.685 0.471172 288.12 0.530853C288.027 0.499441 287.952 0.468034 287.859 0.436624C288.418 0.364379 288.977 0.292129 289.648 0.204179C289.089 0.175909 288.455 0.122512 287.785 0.116229C286.928 0.106807 286.052 0.138221 285.195 0.150787C285.884 0.21989 286.63 0.29527 287.319 0.361232C286.164 0.763288 284.562 0.49002 283.164 0.483737C282.494 0.480596 281.842 0.446044 281.152 0.424056C280.817 0.153926 276.215 0.119374 274.52 0.43348C277.445 0.182195 279.979 0.496301 282.68 0.590533C278.786 0.634507 274.855 0.587388 270.98 0.675337C270.98 0.703606 270.999 0.731879 270.999 0.757008C273.514 0.757008 276.029 0.757008 278.525 0.757009C278.525 0.772714 278.544 0.785283 278.544 0.800988C278.19 0.816693 277.836 0.832391 277.482 0.851237C277.463 0.876365 277.445 0.9015 277.426 0.926629C279.047 1.10253 281.04 0.844955 282.904 1.08682C282.307 0.882648 281.581 0.741304 283.183 0.738162C283.928 0.738162 284.673 0.725597 285.4 0.70675C287.133 0.659635 287.859 0.807264 287.729 1.13707C286.611 1.1622 285.363 1.19047 284.115 1.21875C290.393 1.25958 296.448 1.55484 302.615 1.75273C300.099 2.00401 297.361 1.8124 294.752 1.86266C292.2 1.91292 289.573 1.82811 286.723 1.79984C287.803 1.69619 288.716 1.60824 289.648 1.51715C289.592 1.48574 289.536 1.45119 289.48 1.41978C286.22 1.92863 282.382 1.77157 278.674 1.79984C278.656 1.62394 280.556 1.83125 279.904 1.56112L279.941 1.5674C278.898 1.61766 277.855 1.66791 276.681 1.72445C276.867 1.75586 277.016 1.78099 277.165 1.80612C275.88 1.64593 274.24 2.1108 273.067 1.7276C273.011 1.71189 272.731 1.69618 272.638 1.70875C271.073 1.87523 269.378 1.7967 267.738 1.79355C265.913 1.79355 264.087 1.76529 262.242 1.76215C258.945 1.75273 255.647 1.75586 252.35 1.74644C251.698 1.7433 250.952 1.81869 250.431 1.63337C250.282 1.57683 248.884 1.59253 248.176 1.63964C246.611 1.7433 245.251 1.63965 243.873 1.54542C242.829 1.79356 241.563 1.63022 240.389 1.63022C240.37 1.60509 240.352 1.57682 240.352 1.55169C241.544 1.55169 242.718 1.55169 243.91 1.55169C244.897 1.53913 245.885 1.52657 246.872 1.51715C247.263 1.51401 247.692 1.52657 248.065 1.51086C248.307 1.4983 248.474 1.4449 248.679 1.40721C248.456 1.3758 248.269 1.32239 248.027 1.31297C247.375 1.28156 246.406 1.36952 246.369 1.14336C246.369 1.13708 246.183 1.12451 246.09 1.12765C244.767 1.13079 243.351 1.19362 242.159 1.12451C239.904 0.98945 237.743 1.24074 235.47 1.10567C234.576 1.05227 233.291 1.21875 232.098 1.29099C235.452 1.3224 238.712 1.35381 241.954 1.38522C241.954 1.41349 241.954 1.44176 241.954 1.46689C239.196 1.46689 236.458 1.46375 233.7 1.46689C231.819 1.47003 229.956 1.48259 228.074 1.48887C223.025 1.50457 217.976 1.51715 212.946 1.53599C210.71 1.54227 208.493 1.55798 206.258 1.56426C205.848 1.56426 205.438 1.55483 204.562 1.54227C205.513 1.42605 206.109 1.3538 206.612 1.29412C205.699 1.24701 204.767 1.18733 203.817 1.1622C203.426 1.15278 202.979 1.25643 202.569 1.25643C201.209 1.25015 199.849 1.22816 198.489 1.19675C197.744 1.17791 197.017 1.0931 196.309 1.09938C193.757 1.12137 191.204 1.18419 188.633 1.19989C187.068 1.20932 185.485 1.17162 183.938 1.12765C183.231 1.1088 182.523 0.961176 181.889 0.976882C180.865 1.00201 179.914 1.11509 179.3 1.1622C178.349 1.09938 177.66 1.01771 176.952 1.01457C173.17 0.992586 169.388 0.986298 165.606 0.980017C162.923 0.976875 160.241 0.980016 157.874 0.980016C157.949 0.976875 158.359 0.961174 158.936 0.936046C157.874 0.901494 157.017 0.866943 156.142 0.848096C155.974 0.844955 155.769 0.888925 155.583 0.910913C155.732 0.93604 155.881 0.961177 156.31 1.03656C153.254 0.989446 150.497 0.945464 147.74 0.901488C147.721 0.882642 147.702 0.866942 147.684 0.848096C148.764 0.832391 149.845 0.816688 150.869 0.800983C150.59 0.741302 150.199 0.659627 149.77 0.568538C147.385 0.826104 144.964 1.00829 142.113 0.898354C142.188 0.785275 142.281 0.665908 142.374 0.546548C142.281 0.537123 142.188 0.530846 142.094 0.521422C141.722 0.650206 141.331 0.778992 140.958 0.907777C139.654 0.907776 138.108 0.895205 136.561 0.910912C134.624 0.932898 132.686 0.98316 130.749 1.01457C128.271 1.05855 125.83 1.0554 123.464 0.873218C123.017 0.838667 122.346 0.89835 121.769 0.914055C121.769 0.939182 121.769 0.964308 121.787 0.989437C122.421 1.00828 123.036 1.02714 123.669 1.04598C123.669 1.05855 123.65 1.07425 123.65 1.08681C122.477 1.06482 121.247 1.07739 120.148 1.01143C117.465 0.848091 114.801 0.879501 112.062 1.04912C113.087 1.06796 114.112 1.08682 115.118 1.10566C115.118 1.13393 115.136 1.15906 115.136 1.18733C111.82 1.18733 108.522 1.18733 105.206 1.18733C105.188 1.2313 105.169 1.27213 105.169 1.31611C106.119 1.34124 107.107 1.41034 108.001 1.38521C109.92 1.32867 111.708 1.27213 113.646 1.40406C114.54 1.46374 115.788 1.35694 116.887 1.32553C117.148 1.31925 117.409 1.32239 117.67 1.32239C119.589 1.32239 121.508 1.28784 123.408 1.32868C126.668 1.39464 129.817 1.2313 133.059 1.24701C134.456 1.25329 135.872 1.14964 137.288 1.13393C138.965 1.11195 140.66 1.12765 142.43 1.12765C141.163 1.47944 140.53 1.51714 138.201 1.37265C139.169 1.31611 139.915 1.27528 140.66 1.2313C140.641 1.21874 140.623 1.20931 140.623 1.19675C139.225 1.23444 137.828 1.27214 136.431 1.30983C136.431 1.3381 136.431 1.36322 136.431 1.39149C137.381 1.43861 138.35 1.48572 139.617 1.54855C135.723 1.54855 132.164 1.54855 128.587 1.54855C128.587 1.73073 127.712 1.60823 127.06 1.58938C126.389 1.57053 125.737 1.55169 125.066 1.54227C124.582 1.53598 124.116 1.54227 123.706 1.54227C122.682 1.58938 121.284 1.73073 120.744 1.65849C119.831 1.53598 119.198 1.63335 118.49 1.6365C116.124 1.64906 113.776 1.66477 111.429 1.69932C108.113 1.74958 104.815 1.81868 101.517 1.87522C99.7847 1.90663 98.0894 1.92234 96.9343 1.61137C96.7852 1.56739 96.2636 1.5674 95.686 1.53599C96.1704 1.63964 96.5057 1.7056 97.1392 1.83753C96.2822 1.8658 95.6674 1.90977 95.0526 1.90035C91.9599 1.86266 88.8673 1.81553 85.7747 1.76528C84.6196 1.74643 83.483 1.70874 82.3466 1.6899C80.2227 1.65849 78.0989 1.63336 75.9005 1.66477C76.329 1.70246 76.7761 1.73701 77.4282 1.79355C76.8879 1.98829 76.3476 2.18304 75.7887 2.37464C76.9624 2.34952 77.838 2.12336 79.198 2.20189C79.4402 2.21445 79.7943 2.1642 80.2786 2.12651C79.5521 2.06683 79.0676 2.02913 78.5833 1.9883C84.042 1.78727 89.2958 2.22074 94.68 1.95689C94.68 1.98516 94.68 2.01028 94.68 2.03855C92.7051 2.07624 90.7303 2.11079 88.7554 2.14849C88.7741 2.17676 88.7927 2.20189 88.8113 2.23016C89.184 2.22074 89.5566 2.20189 89.9105 2.20503C90.395 2.21132 90.8793 2.23644 91.3824 2.25528C98.2197 2.25528 105.057 2.25528 111.876 2.25528C108.671 2.32439 105.448 2.33382 102.225 2.34952C100.455 2.3558 98.7042 2.38407 96.9343 2.36837C95.0898 2.35266 93.2454 2.29298 91.401 2.25215C91.1402 2.25215 90.8234 2.2333 90.6185 2.25215C88.7368 2.42805 86.8924 2.42176 84.9176 2.27727C84.3773 2.23958 83.5017 2.35894 82.7751 2.4092C81.5082 2.45004 80.0551 2.43119 78.6578 2.45631C77.6517 2.47516 76.6829 2.55997 75.6769 2.6008C75.2484 2.61651 74.4287 2.65734 74.9689 2.47516C73.553 2.40292 73.553 2.40292 70.7957 2.62279C70.1623 2.54426 69.7151 2.45317 69.1749 2.42805C67.9453 2.37465 66.6784 2.33067 65.4302 2.32439C64.48 2.3181 63.3808 2.44375 62.561 2.39349C61.0147 2.3024 59.5615 2.40606 58.0897 2.38093C56.8788 2.35894 55.6864 2.30554 54.4568 2.30554C56.4875 2.66676 59.1144 2.32753 61.2755 2.51914C60.2322 2.72959 60.0646 2.73272 58.9467 2.59138C57.5308 2.67305 56.4875 2.75471 55.4069 2.78612C50.3022 2.93689 45.1974 3.08138 40.0927 3.20702C38.062 3.25728 35.994 3.24472 33.9447 3.26985C32.7151 3.28555 31.4855 3.31696 29.8087 3.35152C30.8148 3.41748 31.411 3.45517 32.0817 3.50228C30.2372 3.68132 28.5605 3.88549 26.7347 4.00171C24.9648 4.11479 23.0086 4.1462 21.1456 4.20274C19.6365 4.24986 18.1088 4.28441 16.637 4.38806C18.9471 4.36294 21.2573 4.33466 23.9215 4.30639C23.4558 4.36607 23.2881 4.38806 23.0645 4.41633C24.2196 4.4446 25.7286 4.40062 26.3621 4.5137C27.8525 4.77755 29.138 4.54825 30.554 4.5514C29.5106 4.89691 27.3681 4.82468 26.1012 4.79641C24.0705 4.74929 22.0212 4.765 20.0091 4.71788C19.2639 4.69903 18.5187 4.68332 17.7734 4.66448C17.7362 4.70845 17.7175 4.74929 17.6803 4.79326C18.9658 4.82467 20.2513 4.84666 21.5181 4.89378C22.2634 4.92205 22.9527 4.99115 23.6979 5.03199C23.9215 5.04455 24.2195 5.01942 24.4804 5.01942C26.0826 5.01314 27.7966 4.91577 29.1008 5.24558C26.9583 5.24558 24.8903 5.27384 22.8782 5.23929C20.8475 5.20474 18.854 5.10736 17.0468 5.04454C16.8046 4.89063 16.5438 4.73358 16.1526 4.4823C14.5317 4.9566 12.4079 4.80268 10.1909 4.8498C10.3213 4.72101 10.2095 4.58595 10.5449 4.52627C11.4764 4.34723 10.9361 4.30954 10.0232 4.27185C9.70648 4.25928 9.42694 4.22472 9.22205 4.20902C8.55133 4.33466 7.82477 4.46973 7.06098 4.61107C7.15411 4.6205 7.52667 4.66761 7.63849 4.68018C8.45825 4.60793 9.11023 4.5514 10.0977 4.46659C9.85547 4.66134 9.72504 4.76185 9.57599 4.88121C8.27185 4.90948 6.93054 4.94403 5.58911 4.96602C4.1546 4.99114 3.70746 5.14506 4.54584 5.39006C4.0614 5.36807 3.68884 5.34923 3.31622 5.33353C3.26032 5.34295 3.22302 5.35237 3.16712 5.36494C3.63287 5.4309 4.04279 5.5157 4.56439 5.55654C5.2724 5.61308 6.05487 5.66019 6.81873 5.67275C8.55139 5.70417 10.3026 5.71045 12.0352 5.72616C13.1158 5.73558 14.215 5.73872 15.3142 5.75128C18.4628 5.79212 21.6113 5.83295 24.7412 5.88321C27.2377 5.9209 29.7528 5.97744 32.2493 6.01827C33.4603 6.04026 34.6712 6.04969 35.8822 6.12821C33.777 6.14706 31.6531 6.1659 29.6224 6.18475C29.4175 6.2193 29.1939 6.28841 28.9144 6.29783C27.0514 6.35123 25.1511 6.37321 23.3066 6.43918C21.8348 6.49257 20.4376 6.59622 18.9844 6.67161C17.1959 6.7627 15.3887 6.84438 13.5816 6.92605C13.4885 6.92919 13.358 6.92605 13.2649 6.91662C12.2402 6.79412 11.2155 6.67161 10.0045 6.52713C8.66315 6.60879 7.32172 6.74386 6.96777 7.06739C7.61981 7.1679 8.27191 7.26213 8.90534 7.3595L8.88672 7.35637C10.0045 7.39406 11.1224 7.43176 12.1657 7.46631C11.7186 7.52285 11.0851 7.60451 10.3213 7.70189C10.6752 7.79298 11.0106 7.88093 11.4391 7.98458C10.9919 8.02227 10.5075 8.06311 10.0417 8.10394C11.5508 8.12593 13.004 8.14792 14.4386 8.1699C14.4386 8.19817 14.4385 8.22958 14.4572 8.25785C14.0473 8.26413 13.6188 8.27356 13.209 8.27984C11.4018 8.30183 9.61328 8.32067 7.80615 8.3458C6.65106 8.36151 5.47736 8.36465 4.37817 8.4149C3.03674 8.47773 1.75122 8.58766 7.12325e-07 8.70388C1.7699 8.93317 3.09265 9.10279 4.24774 9.25356C3.01813 9.42318 1.7699 9.59908 0.596192 9.75928C3.67023 9.89434 6.72559 10.0137 9.7251 10.1613C12.7618 10.3121 15.7986 10.3938 18.9285 10.4503C21.928 10.5069 24.8903 10.4001 27.8339 10.466C27.8525 10.5006 27.8525 10.5351 27.8712 10.5697C21.5927 10.7267 15.3142 10.8806 9.27789 11.0314C9.03571 11.0817 8.79358 11.1351 8.5141 11.1916C12.3148 11.1225 16.134 11.0974 20.0649 11.2701C18.5373 11.3549 17.2518 11.4303 15.9476 11.4963C15.3887 11.5246 14.6622 11.5748 14.2523 11.534C11.9794 11.3015 9.68781 11.5308 7.3963 11.5277C9.33386 11.5654 11.29 11.6031 13.2276 11.6408C13.2276 11.6596 13.2462 11.6753 13.2462 11.6942C11.0106 11.713 8.75629 11.735 6.52063 11.7539C6.52063 11.7884 6.50201 11.823 6.50201 11.8575C8.57001 11.9109 10.6379 11.9643 12.8364 12.0208C12.5197 12.1057 12.3147 12.1622 12.1098 12.2156C14.1033 12.2407 16.0035 12.269 18.0529 12.2941C17.7548 12.3318 17.5685 12.3569 16.991 12.4355C21.4437 12.404 25.3188 12.5423 28.8027 13.0009C25.1511 12.9663 21.4996 12.9318 17.8293 12.9003L17.848 12.9003C17.4753 12.9475 17.1027 12.9946 16.7301 13.0417C20.9965 13.1234 25.2629 13.2019 29.5479 13.2836C29.5479 13.315 29.5293 13.3432 29.5293 13.3746C26.2876 13.494 23.0272 13.6165 19.7855 13.7359C19.8041 13.7704 19.8228 13.805 19.8228 13.8395C23.5861 13.8395 27.3681 13.8395 31.1315 13.8395C31.1874 13.8772 31.2619 13.9149 31.3178 13.9526C30.703 14.0248 30.1068 14.0971 29.492 14.1693C30.4794 14.295 31.4482 14.4175 32.417 14.54C32.3611 14.5714 32.3052 14.6028 32.2493 14.6342C27.9271 14.408 23.6048 14.4395 19.2639 14.6311C23.0272 14.6311 26.8092 14.6311 30.5726 14.6311C30.5726 14.6562 30.5912 14.6845 30.5912 14.7096C27.8525 14.7567 25.1324 14.807 22.1702 14.8604C25.207 14.9263 28.0015 14.986 31.0569 15.0551C27.9643 15.5011 24.6481 15.1965 21.3132 15.3441C22.5801 15.3598 23.5303 15.3724 24.6295 15.3881C24.3687 15.4415 24.2196 15.4729 23.996 15.52C24.7785 15.52 25.4865 15.52 26.1758 15.52C26.1758 15.5577 26.1572 15.5985 26.1572 15.6362C22.3938 15.5985 18.6304 15.5608 14.8671 15.5231C14.8671 15.542 14.8485 15.564 14.8485 15.5828C17.643 15.6331 20.4562 15.6802 23.2507 15.7304C23.2321 15.7399 23.2322 15.7461 23.2135 15.7493C23.1763 15.7556 23.1017 15.7524 23.0645 15.7587C22.9714 15.7713 22.8782 15.787 22.6173 15.8278C23.7352 15.8278 24.6108 15.8278 25.4865 15.8278C25.5237 15.8529 25.561 15.8781 25.5982 15.9032C24.6667 15.9472 23.7538 16.0069 22.8037 16.032C21.4809 16.0665 20.1395 16.0791 18.8168 16.0979C17.6989 16.1136 16.5997 16.1262 15.4446 16.1828C22.4497 16.3492 29.4547 16.5126 36.4412 16.679C36.4225 16.701 36.4225 16.7199 36.4039 16.7419C30.2932 16.7858 24.1637 16.8298 18.0529 16.8738C18.0343 16.8895 18.0342 16.9083 18.0156 16.924C18.6863 16.946 19.357 16.9712 20.3072 17.0026C19.506 17.0214 18.9844 17.034 18.0529 17.056C20.1954 17.0999 21.928 17.1345 23.6606 17.1722C23.6606 17.2193 23.642 17.2664 23.642 17.3135C22.3193 17.3135 20.9778 17.3135 19.6551 17.3135C19.6179 17.3355 19.5992 17.3575 19.562 17.3795C19.8414 17.4109 20.1208 17.4423 20.5494 17.4926C20.1022 17.568 19.6552 17.6402 19.2266 17.7124C19.5806 17.8821 19.9532 18.0642 20.363 18.2621C19.86 18.2464 19.3756 18.2276 18.8912 18.2119C18.8726 18.2339 18.854 18.2558 18.854 18.2778C21.071 18.3344 23.288 18.3909 25.4119 18.4443C25.5796 18.4003 25.5237 18.416 25.4678 18.4286C25.4119 18.4412 25.356 18.4537 25.2443 18.4757C26.0081 18.4757 26.7347 18.4757 27.6289 18.4757C27.1445 18.4475 26.8092 18.4255 26.4739 18.4035C26.4925 18.3878 26.4924 18.3721 26.5111 18.3564C28.784 18.3815 31.0569 18.4066 33.3113 18.4349C33.3113 18.4537 33.3113 18.4757 33.3113 18.4946C31.7836 18.4946 30.2372 18.4946 28.7095 18.4946C28.6909 18.5071 28.6536 18.5197 28.635 18.5323C29.2311 18.5637 29.8273 18.5982 30.6098 18.6391C29.6224 18.6893 28.8026 18.7302 27.9643 18.771C27.9456 18.793 27.927 18.815 27.927 18.8369C30.6098 18.9657 33.274 19.0945 35.9567 19.2233C35.9381 19.261 35.9195 19.2987 35.9009 19.3364C35.0066 19.3269 34.0938 19.327 33.1995 19.3112C32.212 19.2924 31.206 19.2767 30.2559 19.2264C29.3988 19.1825 28.6163 19.0945 27.7966 19.0286C27.722 19.0662 27.629 19.1039 27.5544 19.1416C29.6411 19.2893 31.709 19.4495 33.8329 19.5814C35.0998 19.6599 35.5283 19.7855 34.8762 20.0902C39.3848 20.1342 43.8002 20.1593 48.197 20.2284C49.2403 20.2441 50.209 20.4043 51.1965 20.4923C50.1531 20.5206 49.0912 20.552 47.843 20.5865C48.1783 20.6336 48.4205 20.665 48.7745 20.7153C41.9371 20.7153 35.1929 20.7153 28.5046 20.7153C28.5791 20.731 28.8026 20.7844 29.2498 20.8818C27.4053 20.8347 25.8777 20.797 23.9215 20.7467C24.8157 21.02 25.8404 21.0577 26.921 21.0797C27.8152 21.0985 28.8399 21.0231 29.3243 21.2775C29.4733 21.3529 30.8334 21.3498 31.6531 21.3781C32.5287 21.4095 33.7957 21.3058 33.7584 21.6356C33.7584 21.6953 35.2302 21.7644 36.0499 21.8178C36.4225 21.8429 37.056 21.8084 37.2422 21.8492C38.4905 22.1194 40.1113 21.9592 41.5459 21.9843C44.1355 22.0314 46.7252 22.0534 49.3148 22.0848C49.3148 22.1288 49.3334 22.1759 49.3334 22.2199C47.843 22.2607 46.3712 22.2984 44.6385 22.3455C46.0731 22.6031 47.4331 22.4178 48.7 22.3926C49.6688 22.3738 50.6375 22.311 51.6063 22.3047C54.8107 22.2764 58.0339 22.2607 61.2383 22.2419C61.555 22.2387 62.1325 22.2324 62.1512 22.2419C62.3934 22.4586 63.0827 22.3078 63.5858 22.3078C66.6598 22.3078 69.7338 22.3078 72.8078 22.3078C75.6769 22.3078 78.5273 22.2984 81.3965 22.3141C85.1226 22.333 88.8672 22.3675 92.5933 22.3989C94.3632 22.4083 96.1146 22.4178 97.8844 22.4272C97.8658 22.4523 97.8658 22.4774 97.8471 22.5026C95.835 22.5246 93.8416 22.5465 91.9786 22.5654C92.2021 22.5057 92.407 22.446 92.6306 22.3895C91.4196 22.4712 89.9292 22.4021 88.9977 22.6596C88.7555 22.7287 87.5072 22.6785 86.7247 22.6816C85.4206 22.6847 84.0979 22.6816 82.7938 22.6816C82.7938 22.7067 82.7938 22.7319 82.7938 22.757C86.3894 22.757 89.9851 22.757 93.3945 22.757C93.4876 22.7696 93.3386 22.7476 92.817 22.6753C97.6609 22.779 102.207 22.7413 106.827 22.9926C104.442 23.2753 102.132 23.1339 99.8779 23.1402C95.8909 23.1496 91.9041 23.181 87.9171 23.1999C87.2092 23.203 86.5012 23.1873 85.8119 23.1779C84.6009 23.1622 83.3713 23.1402 82.1603 23.1339C79.608 23.1245 77.0369 23.1182 74.4845 23.1182C72.8636 23.1182 71.2615 23.1308 69.6406 23.1308C66.8088 23.1276 63.9956 23.1025 61.1638 23.1151C58.63 23.1276 56.0776 23.1779 53.5439 23.2124C53.5626 23.2407 53.5625 23.269 53.5811 23.2973C55.2579 23.2784 56.916 23.2439 58.5928 23.247C61.1824 23.2564 63.772 23.2941 66.3617 23.3161C67.2559 23.3224 68.1315 23.3098 69.0258 23.3224C70.6839 23.3507 72.3234 23.3946 73.9815 23.4229C74.7827 23.4386 75.5837 23.4323 76.3849 23.4355C78.192 23.4449 79.9992 23.4732 81.8063 23.4637C83.2968 23.4543 84.7686 23.3695 86.2404 23.3664C89.6125 23.3632 92.9846 23.4009 96.3567 23.4041C97.6608 23.4072 98.9836 23.3381 100.269 23.3475C102.3 23.3632 104.331 23.4449 106.361 23.4512C109.081 23.4574 111.82 23.4229 114.54 23.3946C116.999 23.3695 119.663 23.2093 121.862 23.3318C124.545 23.4794 127.078 23.3444 129.631 23.426C129.854 23.4323 130.041 23.4606 130.264 23.4763C130.245 23.5014 130.227 23.5297 130.208 23.5548C127.917 23.5548 125.644 23.5548 123.352 23.5548C123.352 23.5925 123.352 23.6302 123.352 23.6679C124.284 23.6679 125.215 23.671 126.147 23.6679C132.22 23.6428 138.294 23.6082 144.367 23.5894C147.106 23.58 149.845 23.6051 152.565 23.5925C154.26 23.5831 155.956 23.5297 157.651 23.5014C157.912 23.4983 158.191 23.5109 158.452 23.5297C159.458 23.5988 160.278 23.7716 161.601 23.5925C162.122 23.5234 163.259 23.6176 164.116 23.6208C165.271 23.6208 166.426 23.5988 167.581 23.5925C168.736 23.5894 169.891 23.6114 171.028 23.5925C172.406 23.5705 173.785 23.514 175.164 23.4763C175.443 23.47 175.89 23.4575 176.021 23.4857C176.878 23.6868 178.238 23.6585 179.281 23.6648C180.399 23.671 180.194 23.7464 180.157 23.8595C180.268 23.8187 180.455 23.7402 180.473 23.7433C181.368 23.803 182.038 23.7559 182.578 23.6176C182.634 23.6019 182.877 23.5988 183.026 23.6051C185.112 23.6679 187.217 23.7339 189.49 23.8061C189.192 23.8532 189.099 23.8846 188.987 23.8878C187.422 23.8972 185.857 23.9035 184.274 23.9129C182.877 23.9223 181.442 24.0197 180.138 23.8501C180.045 23.8752 179.952 23.9192 179.877 23.9192C178.275 23.8878 176.691 23.8532 174.716 23.8093C173.524 23.9632 160.39 23.9537 159.514 23.7904C158.303 23.8187 157.353 23.8407 156.403 23.8626C156.384 23.8469 156.365 23.8344 156.347 23.8187C156.626 23.7873 156.887 23.759 157.167 23.7276C156.403 23.7527 155.546 23.6491 154.894 23.8564C154.633 23.9412 153.068 23.9003 152.099 23.9035C150.46 23.9098 148.82 23.9066 147.181 23.9066C147.181 23.938 147.181 23.9726 147.181 24.004C149.304 24.004 151.428 24.004 153.552 24.004C154.391 24.004 155.229 24.0134 156.067 24.0166C157.129 24.0197 158.21 24.0071 159.272 24.0228C160.352 24.0417 161.414 24.0951 162.476 24.1265C162.886 24.1391 163.352 24.1485 163.724 24.1234C165.718 24.004 167.562 24.0605 169.537 24.1799C170.674 24.249 172.071 24.1642 173.356 24.1485C173.748 24.1453 174.195 24.1139 174.511 24.1422C176.151 24.2804 177.958 24.293 179.504 24.1893C182.094 24.0166 184.311 24.2113 186.677 24.3244C184.367 24.3244 182.038 24.315 179.728 24.3275C176.579 24.3432 173.412 24.3715 170.264 24.3935C164.637 24.4343 158.992 24.494 153.366 24.5128C150.776 24.5223 148.205 24.4532 145.597 24.4437C151.372 24.7045 157.241 24.783 163.52 24.673C163.054 24.7233 162.849 24.7484 162.644 24.7673C162.458 24.783 162.271 24.7924 162.085 24.8395C165.681 25.0374 169.314 24.8866 172.909 24.8866C172.928 24.8552 172.928 24.827 172.947 24.7955C171.829 24.783 170.711 24.7736 169.593 24.761C169.593 24.7421 169.593 24.7233 169.612 24.7076C179.113 24.6636 188.615 24.6196 198.116 24.5757L198.079 24.5788C198.47 24.5631 198.843 24.5474 198.806 24.5505C199.849 24.5317 200.445 24.5223 201.023 24.5129C202.178 24.494 203.314 24.4563 204.469 24.4563C208.363 24.4469 212.257 24.4563 216.151 24.4437C216.914 24.4406 217.66 24.3652 218.461 24.3212C218.591 24.337 218.871 24.3998 219.15 24.3998C222.131 24.3998 225.112 24.3903 228.093 24.3872C230.477 24.3841 232.881 24.3904 235.265 24.3935L235.228 24.3998C237.613 24.293 239.96 24.2239 242.233 24.4752C242.662 24.5223 243.221 24.5537 243.742 24.5568C245.084 24.5631 246.425 24.5474 247.748 24.5411L247.785 24.5505C246.164 24.5097 244.525 24.472 242.904 24.4312C242.923 24.3872 242.923 24.3464 242.941 24.3024C244.338 24.3024 245.885 24.2333 247.096 24.3181C249.201 24.4689 250.878 24.1736 252.815 24.2804C252.815 24.2553 252.815 24.2302 252.815 24.205C251.996 24.1768 251.157 24.1453 250.002 24.1045C252.331 24.1045 254.306 24.1045 256.281 24.1045C256.281 24.1171 256.281 24.1296 256.281 24.1422C255.386 24.1516 254.492 24.1642 253.598 24.1736C253.561 24.1925 253.542 24.2145 253.505 24.2333C254.045 24.2804 254.604 24.3244 254.976 24.3558C254.678 24.4595 254.399 24.5631 254.119 24.6636L254.101 24.6542C254.697 24.6542 255.293 24.6542 255.871 24.6542C255.871 24.6448 255.871 24.6354 255.871 24.6259C255.517 24.6165 255.163 24.6071 254.622 24.5945C256.113 24.2836 257.659 24.2553 259.578 24.3621C260.528 24.4155 261.683 24.3464 262.745 24.3401C264.31 24.3307 265.894 24.337 267.459 24.3212C268.409 24.3118 269.341 24.2804 270.291 24.2616C270.272 24.2239 270.253 24.1893 270.235 24.1516C268.875 24.1736 267.515 24.1956 266.173 24.2176C266.173 24.183 266.155 24.1485 266.155 24.1139C273.16 24.0762 280.165 23.9537 287.393 24.1045C287.021 24.1485 286.797 24.2019 286.574 24.1987C283.965 24.1799 281.357 24.1485 278.73 24.1265C278.432 24.1234 278.116 24.1705 277.799 24.1768C277.109 24.1956 276.42 24.2239 275.749 24.2176C274.408 24.2019 273.067 24.1642 271.707 24.1925C273.085 24.472 274.93 24.3087 276.495 24.4029C276.476 24.4343 276.457 24.472 276.439 24.516C276.606 24.5129 276.681 24.516 276.7 24.5129C278.134 24.1736 280.034 24.4532 281.693 24.4029C283.425 24.3495 285.27 24.428 287.207 24.45C287.077 24.5034 286.984 24.5537 286.816 24.6322C289.126 24.6322 291.38 24.6322 293.653 24.6322C293.672 24.6102 293.709 24.5851 293.728 24.5631C292.014 24.5286 290.318 24.494 288.604 24.4595C288.623 24.4438 288.623 24.428 288.642 24.4123C292.219 24.4123 295.814 24.4092 299.391 24.4155C300.919 24.4186 302.465 24.4186 303.956 24.4595C306.005 24.516 307.999 24.6259 310.048 24.6762C311.334 24.7076 312.656 24.6731 313.96 24.6699C315.004 24.6668 316.047 24.6699 317.128 24.6699C317.239 24.6134 317.388 24.5317 317.463 24.494C318.041 24.5506 318.655 24.6416 318.786 24.6228C320.146 24.4186 321.562 24.5034 322.978 24.5757C323.052 24.5788 323.071 24.6039 323.127 24.6197C323.201 24.5945 323.257 24.5506 323.35 24.5474C324.468 24.516 325.642 24.5097 326.741 24.4626C328.25 24.3966 328.828 24.6102 329.629 24.7484C330.355 24.8741 330.933 25.072 331.957 24.8113C332.013 24.7956 332.311 24.7893 332.405 24.8018C334.286 25.0814 335.87 24.7736 337.584 24.717C339.726 24.6479 341.906 24.6039 344.03 24.5505C344.216 24.6888 344.31 24.7673 344.384 24.8238C345.148 24.7704 345.8 24.7264 346.545 24.6762C346.21 24.6605 345.856 24.6416 345.241 24.6102C345.93 24.5631 346.284 24.5348 346.657 24.5097C347.179 24.472 347.812 24.3809 348.203 24.4061C349.042 24.4626 348.278 24.5443 348.166 24.6322C348.017 24.739 348.39 24.8804 348.725 24.9872C348.799 25.0091 349.675 24.9306 350.178 24.9306C352.041 24.9275 353.904 24.9369 355.767 24.9463C356.177 24.9495 356.792 25.0217 356.922 24.9934C358.562 24.6668 360.518 24.9903 362.325 24.8992C364.151 24.8081 366.144 24.8301 368.063 24.8175C370.374 24.8018 372.684 24.8018 374.994 24.7893C375.18 24.7893 375.348 24.7327 375.516 24.7045C375.441 24.6731 375.385 24.6416 375.311 24.6071C377.565 24.6479 379.819 24.6888 381.887 24.7264C381.682 24.7076 381.272 24.6731 380.881 24.6385C380.918 24.6134 380.937 24.5882 380.974 24.5631C381.701 24.5788 382.446 24.6165 383.154 24.6102C385.762 24.5882 388.371 24.5537 390.979 24.5223C391.296 24.5191 391.612 24.5254 391.929 24.5317C393.755 24.5757 393.755 24.5757 394.984 24.3527C394.537 24.3087 394.016 24.2145 393.55 24.2239C392.581 24.2396 391.202 24.2553 390.774 24.3684C390.029 24.5631 389.582 24.4249 388.967 24.3841C389.302 24.3684 389.619 24.3527 389.88 24.3401C389.488 24.2522 389.134 24.1736 388.78 24.0951C388.874 24.07 388.967 24.048 389.041 24.0229C392.376 24.1642 395.655 24.1171 398.915 23.9914C398.915 23.9663 398.915 23.9412 398.915 23.9129C397.928 23.9129 396.922 23.9129 395.934 23.9129C395.934 23.8941 395.935 23.8721 395.953 23.8532C397.574 23.8532 399.195 23.8532 400.834 23.8532C400.834 23.8689 400.853 23.8815 400.853 23.8972C400.406 23.9098 399.94 23.9192 399.493 23.9318C399.474 23.9506 399.456 23.9695 399.418 23.9883C399.996 24.0291 400.555 24.0668 401.263 24.1171C400.164 24.2333 399.362 24.4626 397.909 24.2679C397.798 24.2522 397.518 24.2679 397.332 24.2836C396.475 24.3589 395.618 24.4406 394.593 24.5348C404.635 24.5537 414.565 24.4406 424.83 24.6228C422.185 24.3213 419.223 24.5129 416.782 24.2961C417.36 24.1642 418.887 24.3935 419.018 24.0857C420.247 24.4815 422.632 24.271 424.495 24.3841C425.52 24.4469 426.637 24.4689 427.699 24.5097C427.681 24.5317 427.662 24.5568 427.625 24.5788C426.861 24.5725 426.116 24.5631 425.315 24.5537C426.116 24.7202 427.476 24.7641 428.314 24.6636C429.041 24.5757 429.078 24.5066 428.389 24.4375C427.644 24.3621 426.842 24.3087 426.06 24.205C427.569 24.205 429.078 24.205 430.401 24.205C431.668 24.2553 432.841 24.3024 434.201 24.3558C433.475 24.4752 432.972 24.5568 432.618 24.6134C434.854 24.6919 437.052 24.7673 439.232 24.8427C439.288 24.8018 439.362 24.7579 439.418 24.717C437.872 24.6354 436.307 24.5537 434.76 24.4752C434.76 24.45 434.779 24.4249 434.779 24.3966C435.915 24.3966 437.071 24.4218 438.17 24.3904C439.232 24.359 440.219 24.271 441.393 24.271C441.057 24.3056 440.722 24.3401 440.387 24.3747C440.405 24.4029 440.405 24.4343 440.424 24.4626C443.647 24.516 446.889 24.5694 450.112 24.6228C450.13 24.5851 450.168 24.5474 450.186 24.5097C448.547 24.4783 446.907 24.4438 445.268 24.4123C445.249 24.3935 445.249 24.3747 445.231 24.3589C445.827 24.3464 446.423 24.337 447.019 24.3244C448.528 24.2898 450.056 24.249 451.565 24.2145C451.751 24.2113 451.956 24.2176 452.198 24.2207C452.143 24.2836 452.105 24.3338 452.031 24.4218C453.26 24.2396 454.341 24.2113 455.477 24.3652C455.645 24.3904 456.036 24.3904 456.241 24.3747C458.253 24.205 460.321 24.1862 462.464 24.2616C462.65 24.2679 462.874 24.2584 463.079 24.2459C463.135 24.2427 463.172 24.2176 463.265 24.1862C462.11 24.1454 460.973 24.1077 459.856 24.0668C459.874 24.0511 459.893 24.0386 459.911 24.0229C461.756 23.9757 463.6 23.9255 465.445 23.8784C465.463 23.8909 465.482 23.9004 465.501 23.9129C465.072 23.938 464.625 23.9632 464.141 23.9883C464.979 24.026 465.761 24.0637 466.563 24.0982C466.544 24.1202 466.525 24.1422 466.507 24.1611C465.836 24.1768 465.184 24.1925 464.401 24.2113C464.96 24.249 465.407 24.2773 465.836 24.3087L465.78 24.2993C467.14 24.5348 468.947 24.4406 470.233 24.3809C472.45 24.2773 474.555 24.293 476.753 24.3087C477.48 24.3118 478.207 24.3087 478.933 24.2553C476.195 24.2616 473.512 23.9569 470.643 24.2898C470.587 24.1265 470.549 24.0103 470.475 23.8187C471.202 23.8878 471.686 23.938 472.263 23.9914C474.164 23.7716 476.325 23.7339 478.318 23.9098C479.473 23.8501 480.461 23.803 481.43 23.7559C481.43 23.7464 481.448 23.737 481.448 23.7276C480.293 23.7276 479.119 23.7276 477.964 23.7276C477.946 23.7025 477.927 23.6805 477.927 23.6554C478.616 23.6271 479.306 23.5925 480.014 23.5705C480.703 23.5486 481.43 23.5423 482.305 23.5266C482.492 23.5517 482.864 23.6396 483.255 23.6396C485.025 23.6428 486.777 23.6208 488.547 23.6114C489.869 23.602 491.192 23.6082 492.496 23.5863C494.955 23.5423 497.415 23.4292 499.855 23.4386C501.998 23.448 504.028 23.3318 506.134 23.3381C509.599 23.3444 513.083 23.3507 516.548 23.3412C518.858 23.335 521.187 23.3036 523.497 23.2878C523.851 23.2847 524.205 23.3067 524.559 23.3193C524.559 23.3444 524.578 23.3695 524.578 23.3946C522.025 23.4418 519.473 23.492 516.921 23.5391C516.902 23.5517 516.902 23.5611 516.883 23.5737C520.218 23.5737 523.553 23.5737 527.13 23.5737C526.422 23.492 525.882 23.4292 525.174 23.3444C532.682 23.291 539.911 23.2627 547.139 23.3444C547.139 23.3884 547.139 23.4323 547.158 23.4795C543.991 23.4795 540.824 23.4795 537.675 23.4795C537.675 23.5014 537.694 23.5266 537.694 23.5486C541.848 23.5486 546.003 23.5486 550.213 23.5486C550.251 23.4355 550.288 23.3632 550.344 23.2093C555.281 23.2093 560.181 23.2093 565.062 23.2093C565.062 23.1905 565.062 23.1716 565.062 23.1528C562.23 23.1528 559.398 23.1591 556.566 23.1496C555.84 23.1465 554.796 23.247 554.442 23.0114C554.424 22.9989 553.418 23.024 552.915 23.0523C552.095 23.0994 551.331 23.1654 550.53 23.225C550.474 23.1936 550.418 23.1622 550.344 23.1308C550.716 23.112 551.089 23.09 551.685 23.0586C549.897 23.0271 548.35 22.9989 546.823 22.9706C546.823 22.9518 546.804 22.9329 546.804 22.9141C548.481 22.9141 550.157 22.9141 551.834 22.9141C551.853 22.8764 551.853 22.8418 551.871 22.8041C550.381 22.7853 548.891 22.7664 547.4 22.7476C547.4 22.7319 547.4 22.713 547.4 22.6973C549.151 22.6973 550.903 22.6942 552.635 22.7068C552.784 22.7068 552.896 22.8293 553.12 22.9392C553.548 22.8827 554.07 22.8136 554.61 22.7476C554.778 22.7287 555.02 22.7099 555.206 22.713C557.125 22.7696 558.988 22.735 560.889 22.6785C562.286 22.6377 563.758 22.6848 565.192 22.6848C565.732 22.6848 566.254 22.6659 566.794 22.6565C566.776 22.6282 566.776 22.6031 566.757 22.5748C560.162 22.5748 553.567 22.5748 546.99 22.5748C546.99 22.5309 546.99 22.4869 546.972 22.4429C552.673 22.4429 558.373 22.4429 564.074 22.4429C564.093 22.3989 564.093 22.3518 564.112 22.3078C562.1 22.2764 560.106 22.2482 558.094 22.2168C558.075 22.2293 558.057 22.245 558.019 22.2576C558.206 22.2764 558.411 22.2921 558.765 22.3267C558.019 22.3518 557.405 22.3707 556.548 22.3958C556.827 22.2984 556.995 22.2419 557.144 22.1885C555.952 22.1885 554.834 22.1885 553.734 22.1885C553.734 22.1634 553.734 22.1414 553.734 22.1162C554.461 22.1162 555.262 22.1476 555.914 22.1068C556.697 22.0566 557.349 21.9435 558.169 21.8461C558.28 21.8681 558.467 21.9121 558.672 21.956C558.355 21.9749 558.038 21.9906 557.74 22.0094C557.759 22.0251 557.777 22.0409 557.796 22.0566C558.932 22.0566 560.087 22.0566 561.224 22.0566C561.224 22.0409 561.243 22.022 561.243 22.0063C560.665 22 560.087 21.9937 559.491 21.9875C561.187 21.755 563.236 21.6671 565.099 21.6828C567.838 21.7048 570.502 21.5163 573.296 21.6639C574.321 21.7173 575.681 21.576 576.874 21.5257C576.855 21.5006 576.855 21.4723 576.836 21.4472C576.259 21.4472 575.7 21.4472 575.122 21.4472C575.122 21.4158 575.104 21.3875 575.104 21.3561C576.929 21.3372 578.774 21.3153 580.6 21.2964C580.618 21.3247 580.655 21.3561 580.674 21.3844C579.649 21.4158 578.625 21.4503 577.6 21.4817C579.053 21.5194 580.562 21.6262 581.643 21.3373C581.848 21.2807 582.705 21.2933 583.282 21.2933C584.605 21.287 585.947 21.2901 587.288 21.2901C587.288 21.3278 587.288 21.3655 587.288 21.4032C585.462 21.4032 583.636 21.4032 581.811 21.4032C581.811 21.4409 581.811 21.4755 581.792 21.5131C583.171 21.5131 584.531 21.51 585.909 21.5131C589.915 21.5257 593.92 21.5446 597.926 21.5509C599.398 21.554 598.615 21.7048 598.392 21.8712C599.416 21.8964 600.367 21.9183 601.317 21.9372C601.335 21.9058 601.373 21.8744 601.391 21.8398C600.646 21.8241 599.901 21.8084 598.969 21.7896C601.484 21.5257 602.081 21.5194 604.186 21.6388C605.304 21.6137 606.44 21.5917 607.558 21.5571C608.173 21.5351 608.769 21.488 609.384 21.4503L609.421 21.4535C607.949 21.4535 606.477 21.4535 605.005 21.4535C605.005 21.4095 605.005 21.3655 605.005 21.3216C606.477 21.3216 607.93 21.3216 609.402 21.3216C609.402 21.2996 609.402 21.2744 609.402 21.2524C607.129 21.1928 604.856 21.1299 602.584 21.0703C601.931 21.0891 601.242 21.1331 600.627 21.1142C599.752 21.086 598.913 21.0137 598.056 20.9572C597.777 21.02 597.516 21.0828 597.106 21.1771C595.895 21.1771 594.423 21.1771 592.952 21.1771C592.952 21.1582 592.933 21.1394 592.933 21.1205C594.032 21.1205 595.131 21.1205 596.231 21.1205C596.268 21.0891 596.305 21.0577 596.342 21.0294C595.877 20.9949 595.411 20.9603 595.057 20.9321C595.541 20.8787 596.1 20.819 596.64 20.7624C596.566 20.731 596.473 20.6996 596.398 20.6713C594.684 20.7342 592.952 20.797 591.238 20.8598C591.2 20.8347 591.182 20.8096 591.144 20.7813C591.834 20.7624 592.504 20.7467 593.194 20.7279C593.212 20.7153 593.212 20.7028 593.231 20.6902C591.368 20.5928 589.505 20.4923 587.549 20.3918C587.642 20.4452 587.716 20.4892 587.94 20.6211C586.915 20.5426 586.17 20.486 585.481 20.4358C585.201 20.6242 584.68 20.6368 583.45 20.5049C582.928 20.4483 581.978 20.4986 581.289 20.5331C580.097 20.5928 579.053 20.5363 577.917 20.4829C577.041 20.442 575.961 20.4546 575.104 20.508C574.414 20.5488 573.893 20.6902 573.93 20.4295C573.222 20.4358 572.085 20.3918 571.862 20.4546C570.912 20.7247 570.67 20.5331 570.297 20.4169C569.757 20.4766 569.216 20.5394 568.303 20.6399C568.434 20.5017 568.49 20.4452 568.564 20.3824C568.192 20.3635 567.819 20.3415 567.297 20.3133C567.745 20.2724 568.043 20.2442 568.583 20.1939C568.21 20.1279 567.968 20.084 567.763 20.0431C568.005 20.0369 568.378 20.0274 568.769 20.018C568.769 19.9992 568.788 19.9803 568.788 19.9615C567.633 19.9615 566.496 19.9615 565.341 19.9615C571.731 19.6348 578.196 19.6976 584.68 19.9081C584.698 19.861 584.717 19.817 584.736 19.7699C583.58 19.7479 582.444 19.7259 581.289 19.7008C581.27 19.6851 581.27 19.6725 581.252 19.6568C582.016 19.6474 582.798 19.616 583.543 19.6348C586.226 19.707 588.909 19.8013 591.592 19.8861C592.56 19.9175 593.548 19.9395 594.517 19.9646L594.461 19.9615C595.374 19.9929 596.286 20.0211 597.199 20.0526C597.237 20.0337 597.292 20.018 597.33 19.9992C596.193 19.8924 595.038 19.6913 593.92 19.7008C592.821 19.707 591.797 19.7353 590.753 19.6662C590.381 19.6411 590.045 19.6034 589.393 19.5437C593.101 19.5437 596.38 19.5468 599.659 19.5406C600.627 19.5374 601.615 19.4746 602.565 19.4903C605.974 19.5531 609.365 19.6379 612.774 19.7133C613.072 19.7196 613.613 19.7259 613.631 19.7102C614.246 19.3144 616.258 19.5437 617.711 19.3678C616.948 19.729 617.823 19.817 619.314 19.8515C620.711 19.8829 622.09 19.9552 623.487 20.0086C623.45 20.0431 623.431 20.0746 623.394 20.1091C621.326 20.0526 619.239 19.9929 617.171 19.9363C617.153 19.9615 617.115 19.9835 617.097 20.0086C619.519 20.1028 621.959 20.2002 624.214 20.2881C624.884 20.1688 622.723 20.0714 625.07 19.9897C622.984 19.8892 621.475 19.817 619.947 19.7447C619.947 19.729 619.928 19.7133 619.928 19.6945C620.282 19.6819 620.655 19.6631 621.009 19.6568C621.214 19.6537 621.605 19.6851 621.624 19.6819C622.108 19.3961 623.338 19.5814 624.12 19.572C625.629 19.5563 627.157 19.6065 628.517 19.3395C628.051 19.3521 627.586 19.3772 627.548 19.3647C626.691 19.0568 625.555 19.2359 624.474 19.2956C624.176 19.3113 623.86 19.3333 623.561 19.327C621.922 19.2956 620.301 19.2484 618.662 19.2265C617.954 19.217 617.246 19.2642 616.538 19.261C615.793 19.2547 615.047 19.2202 614.302 19.1982C614.321 19.1668 614.339 19.1385 614.358 19.1071C615.345 19.1071 616.333 19.1071 617.302 19.1071C617.302 19.0914 617.32 19.0788 617.32 19.0631C614.824 18.9281 612.346 18.7867 609.849 18.6642C608.955 18.6202 607.986 18.6108 607.055 18.5449C608.433 18.5197 609.831 18.4977 611.209 18.4726C611.209 18.4632 611.228 18.4506 611.228 18.4412C609.831 18.4098 608.433 18.3752 607.018 18.3438C607.204 18.1931 607.465 18.0925 608.508 18.1648C608.992 18.1993 609.961 18.2056 610.147 18.1554C611.191 17.8727 612.663 17.9952 613.985 18.0046C614.619 18.0077 615.234 18.0894 616.296 18.1711C614.786 18.1711 613.762 18.1711 612.756 18.1711C612.756 18.1836 612.737 18.1962 612.737 18.2088C613.743 18.2496 614.768 18.2904 615.774 18.3313C615.755 18.3627 615.737 18.3909 615.699 18.4223C614.88 18.4035 614.06 18.3847 613.24 18.3658C613.222 18.4004 613.203 18.4381 613.203 18.4726C615.55 18.4946 617.916 18.5134 620.264 18.5354C620.264 18.5197 620.282 18.504 620.282 18.4883C619.071 18.46 617.879 18.4318 616.668 18.4035C616.668 18.3784 616.668 18.3532 616.668 18.3281C618.028 18.347 619.388 18.369 620.748 18.3878C621.139 18.3941 621.531 18.3909 621.922 18.3847C622.295 18.3815 622.649 18.3595 623.003 18.3658C623.953 18.3784 624.903 18.3909 625.834 18.4255C626.412 18.4475 626.952 18.5103 627.567 18.5574C627.828 18.4852 628.089 18.4098 628.573 18.2747C627.753 18.1742 626.766 18.0549 625.648 17.9198C626.17 17.9449 626.58 17.9638 627.213 17.992C626.989 17.8978 626.859 17.8444 626.673 17.7564C627.232 17.8098 627.66 17.8507 628.089 17.8884C628.163 17.8727 628.256 17.857 628.331 17.8413C627.865 17.7502 627.381 17.6559 626.915 17.5648C627.12 17.5303 627.418 17.4863 627.53 17.4643C626.617 17.4235 625.704 17.3732 624.772 17.3481C623.86 17.323 622.928 17.3198 621.885 17.3041C622.052 17.2319 622.183 17.1785 622.332 17.1188C621.195 17.0591 620.096 17.0026 618.997 16.9461C619.034 16.9209 619.071 16.8927 619.109 16.8675C619.724 16.8958 620.32 16.9429 620.935 16.9461C621.754 16.9492 622.555 16.9021 623.375 16.8989C624.083 16.8958 624.791 16.9272 625.76 16.9492C625.313 16.8989 625.033 16.8675 624.754 16.833C624.791 16.8047 624.81 16.7796 624.847 16.7513C625.834 16.7764 626.822 16.8016 627.809 16.8267C627.269 16.6759 626.803 16.5503 626.356 16.4215C626.468 16.4089 626.58 16.3964 626.691 16.3807C625.834 16.3618 624.977 16.3398 624.064 16.3178C624.791 16.2268 625.443 16.1011 626.226 16.0603C627.157 16.01 628.219 16.032 629.505 16.0226C628.983 15.9723 628.666 15.9409 628.145 15.8907C628.703 15.8498 629.076 15.8216 629.486 15.7933C628.443 15.6802 627.437 15.5703 626.431 15.4603C625.648 15.4321 624.866 15.4038 624.102 15.3755C624.81 15.297 625.387 15.2373 626.039 15.1651C626.058 15.1714 626.244 15.2216 626.319 15.2467C627.586 15.0771 627.828 15.4038 628.685 15.4101C628.238 15.4352 627.697 15.4509 627.157 15.4698ZM577.507 18.3627C578.122 18.3438 578.848 18.3564 579.314 18.2967C580.469 18.1459 582.779 18.1899 583.804 18.4161C582.239 18.4443 580.711 18.4004 579.109 18.4443C576.203 18.526 573.241 18.5197 570.297 18.5511C570.278 18.5229 570.278 18.4915 570.26 18.4632C571.415 18.4475 572.589 18.4318 573.744 18.4161C575.01 18.3972 576.277 18.3784 577.544 18.3595C576.072 18.3595 574.619 18.3595 573.147 18.3595C573.147 18.3187 573.166 18.2747 573.166 18.2339C574.973 18.2339 576.799 18.2339 578.96 18.2339C578.289 18.2904 577.898 18.3281 577.507 18.3627ZM307.123 1.2156C307.533 0.948613 308.595 1.09938 309.377 1.10881C309.992 1.11823 310.682 1.21561 311.147 1.18106C313.122 1.04285 314.519 1.31926 316.233 1.37265C314.501 1.41349 312.805 1.42291 311.11 1.41349C309.936 1.40721 308.781 1.38836 307.626 1.35695C307.421 1.35381 307.291 1.26586 307.123 1.2156C306.564 1.21874 305.987 1.22816 305.428 1.22503C304.124 1.2156 302.801 1.1999 301.497 1.19048C301.087 1.18734 300.677 1.1999 300.286 1.20618C300.286 1.17477 300.267 1.14336 300.267 1.1151C302.391 1.07112 304.515 1.024 306.639 0.980023C306.657 1.00201 306.676 1.024 306.695 1.04913C306.471 1.08682 306.266 1.12451 305.949 1.17791C306.378 1.19048 306.75 1.20304 307.123 1.2156ZM604.26 17.3858C603.832 17.4109 603.217 17.4141 603.031 17.4675C602.434 17.6308 601.205 17.6591 600.311 17.5083C600.516 17.4926 600.739 17.48 601.037 17.458C599.211 17.4361 597.516 17.4141 595.821 17.3921C595.839 17.3732 595.839 17.3512 595.858 17.3324C596.51 17.279 597.181 17.2225 598.131 17.1439C597.255 17.0686 596.827 17.034 596.212 16.9837C598.149 16.9084 598.094 16.9115 598.746 17.2162C598.876 17.2759 599.454 17.3041 599.845 17.345C599.863 17.3481 599.975 17.323 600.05 17.3104C599.863 17.2664 599.677 17.2193 599.249 17.1188C601.093 17.1188 602.602 17.1188 604.13 17.1188C604.13 17.1377 604.148 17.1534 604.148 17.1722C602.956 17.1942 601.764 17.213 600.59 17.235C600.59 17.2633 600.609 17.2884 600.609 17.3167C601.838 17.3167 603.049 17.3167 604.279 17.3167C604.707 17.2853 605.155 17.2539 605.564 17.2225C605.415 17.1722 605.285 17.1251 605.005 17.0309C606.57 17.0246 607.483 17.2319 609.067 17.1848C611.098 17.1219 613.371 17.301 615.532 17.3858C615.83 17.3984 616.072 17.4675 616.333 17.5114C616.277 17.5303 616.221 17.5491 616.147 17.568C613.929 17.4989 611.712 17.4266 609.216 17.3481C609.849 17.4486 610.241 17.5083 610.613 17.568C609.607 17.725 608.601 17.747 607.278 17.568C608.173 17.5586 608.769 17.5523 609.365 17.546C609.384 17.5177 609.384 17.4895 609.402 17.4612C608.899 17.4486 608.378 17.4141 607.893 17.4298C606.869 17.4643 605.881 17.5271 604.875 17.5774C604.838 17.5554 604.801 17.5366 604.763 17.5146C604.912 17.4989 605.08 17.4832 605.285 17.4643C604.931 17.4361 604.596 17.4109 604.26 17.3858ZM625.648 4.89694C624.493 4.87181 623.338 4.84354 622.183 4.81841C622.164 4.83098 622.164 4.84668 622.146 4.85925C622.891 4.89694 623.636 4.93149 624.381 4.96919C624.381 4.98489 624.381 5.00374 624.381 5.01945C623.748 5.04457 623.096 5.0697 622.462 5.09168C622.462 5.10739 622.462 5.1231 622.481 5.13881C624.139 5.1765 625.797 5.21418 627.455 5.24874C627.437 5.26758 627.418 5.28957 627.418 5.30842C626.859 5.33041 626.319 5.35239 625.369 5.39009C626.151 5.43721 626.524 5.4592 626.896 5.48118C626.878 5.49375 626.859 5.50631 626.84 5.51573C624.698 5.48118 622.537 5.44663 620.394 5.41208C620.394 5.39951 620.394 5.38695 620.413 5.37439C621.363 5.36182 622.295 5.34925 623.729 5.33041C621.568 5.10425 619.891 4.89694 617.656 5.02887C619.034 4.90323 620.376 4.79328 621.717 4.68963C622.499 4.63623 625.164 4.78072 625.648 4.89694C626.84 4.6488 627.884 4.9629 629.002 4.92835C628.946 4.96919 628.908 5.01317 628.89 5.03201C628.294 5.00688 627.846 4.9849 627.381 4.96291C627.325 4.98804 627.288 5.01631 627.232 5.04144C627.828 5.07913 628.424 5.11682 629.02 5.15451C629.002 5.17336 628.964 5.1922 628.946 5.21105C627.548 5.17021 626.151 5.12938 624.754 5.08855C624.754 5.06656 624.754 5.04143 624.754 5.01945C625.35 5.01002 625.946 5.00374 626.542 4.99431C626.561 4.97546 626.561 4.95977 626.58 4.94092C626.263 4.92521 625.946 4.91264 625.648 4.89694ZM610.297 7.50088C610.911 7.53543 611.545 7.56684 612.104 7.59825C611.899 7.53229 611.694 7.46948 611.508 7.41608C612.7 7.45691 613.687 7.48832 614.693 7.52287C614.731 7.49146 614.768 7.46319 614.805 7.43178C613.706 7.36581 612.607 7.29671 611.47 7.22761C612.868 7.22761 614.116 7.1962 615.271 7.23703C616.296 7.27473 617.227 7.39095 618.214 7.47261C618.159 7.49774 618.103 7.51973 618.047 7.54486C617.208 7.51031 616.351 7.47575 615.252 7.42863C616.109 7.83697 617.674 7.57313 618.773 7.6705C615.942 7.76473 613.203 8.02544 610.222 7.77415C610.259 7.6705 610.297 7.57941 610.334 7.48831C609.495 7.48831 608.657 7.48831 607.819 7.48831C607.819 7.50716 607.819 7.52601 607.819 7.54172C608.191 7.55742 608.564 7.57627 608.937 7.59197C606.198 7.78986 604.987 7.21819 602.49 7.27787C602.528 7.24646 602.565 7.21504 602.621 7.18363C603.515 7.20248 604.409 7.22133 605.453 7.24018C604.745 7.02344 605.434 7.00773 606.179 7.0203C607.39 7.03601 608.601 7.06113 609.812 7.08626C610.166 7.09254 610.52 7.12081 610.855 7.13652C610.837 7.15222 610.818 7.17107 610.8 7.18678C609.831 7.20248 608.843 7.21504 607.688 7.23389C608.732 7.34697 609.514 7.42235 610.297 7.50088ZM603.999 3.40493C603.981 3.46461 603.962 3.5243 603.944 3.58398C603.739 3.5777 603.403 3.58084 603.366 3.56513C602.807 3.26987 601.484 3.28244 600.143 3.28244C599.621 3.28244 599.118 3.27301 598.597 3.26987C598.149 3.26673 597.721 3.26987 597.274 3.26987C599.659 3.13481 601.95 3.12224 604.018 3.41436C604.819 3.39551 605.62 3.3484 606.421 3.35782C608.452 3.37981 610.483 3.42692 612.514 3.46462C612.532 3.44891 612.532 3.43006 612.551 3.41436C610.166 3.34526 607.781 3.27302 605.043 3.19449C605.676 3.15366 606.123 3.10026 606.552 3.10654C609.235 3.14109 611.917 3.18506 614.6 3.23218C614.936 3.23846 615.252 3.2793 615.588 3.30129C615.457 3.32641 615.327 3.35154 615.196 3.37667C614.563 3.40494 613.929 3.43635 613.277 3.46462C613.277 3.47718 613.296 3.48974 613.296 3.50231C613.836 3.51801 614.377 3.53686 614.936 3.55256C614.954 3.57769 614.954 3.59968 614.973 3.62481C614.563 3.63738 614.134 3.67193 613.743 3.6625C610.501 3.58398 607.26 3.49603 603.999 3.40493ZM577.805 4.13681C574.284 4.13681 570.781 4.13681 567.26 4.13681C567.26 4.10854 567.242 4.0834 567.242 4.05514C568.49 4.02687 569.757 3.97975 571.005 3.97975C572.57 3.97661 574.135 3.9986 575.681 4.03001C576.408 4.04572 577.097 4.10539 577.805 4.14308C578.476 4.0677 579.146 3.99232 579.948 3.90123C574.917 3.90123 569.962 3.90123 565.043 3.90123C564.987 3.80071 564.931 3.70019 564.838 3.54314C567.763 3.64365 570.856 3.4018 573.483 3.62795C574.694 3.60911 575.625 3.5934 576.575 3.58083C576.594 3.60282 576.613 3.62481 576.613 3.6468C576.24 3.67193 575.867 3.69705 575.495 3.72218C578.923 3.6468 581.848 4.17135 585.294 3.96404C584.009 3.9452 582.723 3.92635 581.419 3.90751C581.438 3.85411 581.475 3.79757 581.494 3.74417C585.071 3.79129 588.648 3.83841 592.225 3.88238C592.225 3.90751 592.206 3.92949 592.206 3.95462C591.703 3.96404 591.2 3.97661 590.716 3.98603C590.697 4.02058 590.679 4.05514 590.66 4.08655C591.703 4.1054 592.747 4.12424 593.79 4.14308C593.79 4.16507 593.771 4.18392 593.771 4.20591C592.877 4.20591 591.983 4.20591 591.107 4.20591C591.089 4.23418 591.089 4.26245 591.07 4.29386C593.734 4.33155 596.38 4.36924 599.044 4.40693C599.044 4.43206 599.025 4.45405 599.025 4.47918C598.578 4.48546 598.131 4.50431 597.684 4.49803C597.274 4.49174 596.864 4.46347 596.454 4.44463C596.435 4.45719 596.398 4.46975 596.38 4.48546C596.808 4.53572 597.255 4.58598 597.758 4.6488C597.162 4.72419 596.715 4.78386 596.566 4.80271C595.914 4.73675 595.504 4.68335 595.057 4.65194C593.641 4.5577 592.15 4.64879 590.716 4.6111C589.971 4.59225 589.207 4.56399 588.406 4.53572C588.07 4.56713 587.511 4.62367 586.766 4.69591C586.841 4.58912 586.859 4.55142 586.859 4.542C586.17 4.57655 585.518 4.64565 584.978 4.62367C584.363 4.60168 583.823 4.49803 583.264 4.43207C583.189 4.45091 583.133 4.46976 583.059 4.4886C583.264 4.53886 583.487 4.58597 583.674 4.62995C581.606 4.58283 579.631 4.53572 577.656 4.4886C577.712 4.35668 577.768 4.24674 577.805 4.13681ZM589.561 17.8664C590.399 17.9292 590.381 17.9292 590.548 18.1271C590.586 18.1648 590.828 18.2025 591.033 18.2213C591.126 18.2307 591.387 18.2088 591.498 18.1899C592.169 18.0737 594.666 18.0203 595.541 18.0643C596.324 18.1051 597.199 18.0894 598.019 18.0988C598.019 18.0737 598.019 18.0486 598.038 18.0234C597.814 18.0109 597.572 17.9983 596.957 17.9606C600.478 18.0109 603.608 18.058 606.719 18.1051C606.794 18.1271 606.85 18.1491 606.924 18.1711C606.216 18.2307 605.509 18.2904 604.67 18.3627C605.173 18.4161 605.602 18.46 606.123 18.5166C605.155 18.5449 604.391 18.5668 603.273 18.5982C603.944 18.6925 604.279 18.7396 604.652 18.7899C602.509 19.0757 589.076 19.1228 583.953 18.8652C584.642 18.8118 585.239 18.7647 585.853 18.7145C585.667 18.5543 584.661 18.2904 583.73 18.2025C584.456 18.2119 584.903 18.2182 585.369 18.2245C585.444 18.1962 585.518 18.1679 585.611 18.1397C584.922 18.0643 584.233 17.9857 583.767 17.9355C584.493 17.8664 585.239 17.7941 585.984 17.7219C585.965 17.6999 585.947 17.6779 585.909 17.6559C582.332 17.6245 578.774 17.5931 575.197 17.5617C575.178 17.5931 575.141 17.6214 575.122 17.6528C577.675 17.6999 580.208 17.747 582.761 17.791C582.761 17.8161 582.742 17.8444 582.742 17.8695C579.258 17.8381 575.774 17.8067 572.309 17.7753C572.309 17.747 572.328 17.7188 572.328 17.6905C573.781 17.6968 573.762 17.6936 574.806 17.4895C574.955 17.458 575.253 17.4329 575.476 17.4361C577.656 17.4518 579.817 17.4737 581.997 17.4926C585.22 17.5177 588.443 17.5366 591.666 17.5648C591.908 17.568 592.132 17.612 592.374 17.6371C592.337 17.6654 592.318 17.6968 592.281 17.725C591.256 17.7156 590.232 17.6936 589.225 17.6999C588.201 17.7062 587.027 17.6622 586.114 17.857C588.592 17.992 589.337 18.1679 588.872 18.4789C589.393 18.4789 589.915 18.4789 590.176 18.4789C590.008 18.3815 589.803 18.2936 589.71 18.1993C589.579 18.0894 589.598 17.9732 589.561 17.8664ZM164.283 1.33181C163.091 1.34438 162.048 1.35695 161.023 1.36951C159.03 1.39464 157.055 1.41349 155.061 1.4449C154.204 1.45746 153.217 1.55483 152.528 1.50458C151.056 1.39464 149.621 1.43234 148.149 1.43862C146.286 1.44804 144.423 1.44175 142.542 1.44175C143.324 1.30669 144.293 1.17163 145.355 1.14336C146.883 1.10252 148.503 1.1779 150.031 1.13707C153.385 1.04598 156.701 1.24701 160.036 1.14963C160.427 1.13707 160.855 1.22188 161.302 1.24073C161.694 1.25644 162.122 1.25015 162.532 1.24386C163.37 1.22816 164.227 1.18733 165.066 1.19047C165.997 1.19361 166.966 1.27842 167.842 1.25015C169.127 1.20932 169.873 1.29413 170.655 1.48573C168.457 1.48573 166.426 1.48573 164.302 1.48573C164.283 1.47945 164.283 1.41662 164.283 1.33181ZM602.677 4.29072C605.322 4.66136 605.918 4.65822 608.937 4.31899C609.402 4.26559 610.352 4.2436 610.706 4.29386C611.526 4.41322 612.365 4.45405 613.389 4.4195C613.352 4.50431 613.315 4.56713 613.315 4.55771C614.507 4.57027 615.55 4.58284 616.612 4.5954C616.612 4.61739 616.612 4.63937 616.612 4.66136C616.184 4.70533 615.737 4.75246 615.122 4.81528C615.811 4.82784 616.277 4.83727 616.761 4.84355C615.047 4.90323 613.333 4.92207 611.619 4.95662C608.601 5.01944 605.881 4.62053 602.807 4.76187C602.77 4.76187 602.714 4.73675 602.584 4.70534C602.919 4.67079 603.236 4.63938 603.776 4.58912C603.142 4.56713 602.714 4.55457 602.304 4.53886C602.453 4.44463 602.565 4.36924 602.677 4.29072ZM218.684 24.0888C218.703 24.1265 218.703 24.1611 218.722 24.1987C217.753 24.1987 216.784 24.1925 215.815 24.1987C213.803 24.2113 211.791 24.2302 209.779 24.2427C207.376 24.2616 204.972 24.2836 202.569 24.293C199.048 24.3055 195.527 24.293 192.006 24.3181C190.273 24.3307 187.609 24.2521 186.603 24.0762C189.695 24.0762 192.658 24.0605 195.62 24.0825C197.762 24.0951 199.886 24.1799 202.01 24.1862C204.674 24.1925 207.32 24.1453 209.984 24.1328C211.81 24.1234 213.635 24.1296 215.461 24.1234C216.523 24.1202 217.604 24.1014 218.684 24.0888ZM288.474 1.24701C290.095 0.7947 290.691 0.753864 293.001 0.86066C293.225 0.870083 293.504 0.876367 293.728 0.863804C296.019 0.747585 298.162 0.870087 300.211 0.951754C299.503 1.3381 298.031 1.25958 296.504 1.19676C295.33 1.14964 294.1 1.10567 292.908 1.11195C291.585 1.12452 290.244 1.19047 288.474 1.24701ZM629.691 5.36182C630.865 5.50003 631.871 5.62253 632.895 5.74503C632.951 5.72304 633.026 5.70105 633.082 5.67593C632.933 5.61311 632.802 5.54714 632.653 5.48432C632.728 5.45919 632.821 5.43092 632.895 5.40579C634.125 5.47489 635.355 5.544 636.975 5.63195C636.118 5.66964 635.671 5.69163 635.448 5.70105C636.156 5.82669 636.882 5.95862 637.683 6.09997C636.938 6.18792 636.733 6.40465 635.224 6.20677C634.367 6.09369 632.914 6.11882 632.616 5.84555C632.616 5.84241 632.523 5.83926 632.467 5.83926C631.312 5.80157 630.157 5.76073 629.02 5.72304C629.262 5.5974 629.449 5.49689 629.691 5.36182ZM507.959 1.35696C507.959 1.37267 507.959 1.38837 507.959 1.40408C505.314 1.43863 502.668 1.49831 500.004 1.49831C497.433 1.49831 494.881 1.43863 492.31 1.40408C492.31 1.39465 492.291 1.38838 492.291 1.37895C494.583 1.35068 496.874 1.32555 499.408 1.29728C498.756 1.21561 498.328 1.16221 497.899 1.10882C497.936 1.08683 497.955 1.06484 497.992 1.03971C500.917 1.03971 503.842 1.03971 506.767 1.03971C506.767 1.06484 506.786 1.08997 506.786 1.1151C505.239 1.1151 503.674 1.1151 502.128 1.1151C502.109 1.14651 502.091 1.17792 502.072 1.21248C504.047 1.25959 506.003 1.3067 507.959 1.35696ZM512.375 1.17792C512.393 1.19677 512.431 1.21248 512.449 1.23132C514.685 1.23132 516.921 1.23132 519.156 1.23132C519.007 1.33498 518.709 1.41664 518.374 1.42292C516.511 1.45747 514.629 1.47946 512.747 1.49203C511.648 1.49831 510.698 1.28158 510.978 1.07427C511.276 0.866958 512.04 1.02087 512.636 1.02715C513.046 1.03344 513.474 1.00831 513.884 1.00516C515.71 0.992601 517.535 0.980036 519.38 0.973753C519.603 0.973753 519.827 1.01145 520.051 1.03343C520.051 1.04914 520.032 1.06799 520.032 1.08369C517.48 1.11824 514.927 1.14965 512.375 1.17792ZM162.756 23.1465C162.756 23.1716 162.756 23.1999 162.756 23.225C155.956 23.225 149.155 23.225 142.355 23.225C149.137 23.0271 155.937 23.0899 162.756 23.1465ZM551.573 16.1011C550.064 16.1419 548.555 16.1859 546.953 16.2299C547.251 16.2739 547.475 16.3084 547.735 16.3461C546.226 16.4875 541.289 16.4152 540.675 16.2582C544.177 15.8907 547.94 16.1137 551.573 16.1011ZM249.331 23.9223C249.294 23.96 249.257 23.9946 249.22 24.0323C244.134 24.0009 239.047 23.9726 233.961 23.9412C233.961 23.9129 233.961 23.8846 233.98 23.8532C234.185 23.8469 234.39 23.8375 234.595 23.8375C238.377 23.825 242.159 23.8061 245.922 23.8093C247.059 23.8124 248.195 23.8846 249.331 23.9223ZM585.853 6.32613C585.835 6.29786 585.797 6.26958 585.779 6.24446C585.239 6.22875 584.68 6.21305 584.139 6.19734C587.195 5.97747 590.027 5.99003 590.66 6.16593C590.045 6.18478 589.375 6.20362 588.722 6.22247C588.741 6.24445 588.76 6.26645 588.778 6.28844C589.356 6.30414 589.915 6.31984 590.492 6.33868C590.474 6.36381 590.455 6.38894 590.455 6.41721C588.182 6.43606 585.891 6.45805 583.618 6.47689C583.599 6.44862 583.599 6.4235 583.58 6.39523C584.344 6.36696 585.09 6.34811 585.853 6.32613ZM349.712 1.00829C351.315 1.00829 352.73 1.00829 354.165 1.00829C354.184 1.0397 354.202 1.06798 354.202 1.09939C353.569 1.12451 352.935 1.16849 352.302 1.17477C350.607 1.19362 348.893 1.20305 347.197 1.19362C346.974 1.19362 346.638 1.05855 346.62 0.983168C346.62 0.926628 347.067 0.813551 347.272 0.816692C348.296 0.835539 349.321 0.882656 350.551 0.926632C350.159 0.967465 350.01 0.980023 349.712 1.00829ZM313.346 1.77158C310.029 1.82812 306.676 1.94433 303.658 1.5517C306.955 1.48259 310.085 1.73074 313.346 1.77158ZM620.003 5.58483C620.823 5.59426 621.847 5.6665 622.406 5.60368C623.99 5.42464 625.201 5.62881 626.524 5.68535C627.25 5.71362 627.902 5.79843 628.536 5.85497C626.3 6.03401 623.86 5.99945 620.003 5.58483ZM318.376 1.536C318.376 1.52657 318.376 1.51715 318.376 1.50773C323.276 1.50773 328.176 1.50773 333.094 1.50773C332.796 1.61452 332.628 1.67734 332.442 1.74959C327.84 1.68048 323.108 1.60824 318.376 1.536ZM602.397 21.3278C602.379 21.3592 602.379 21.3875 602.36 21.4189C597.535 21.4189 592.709 21.4189 587.884 21.4189C587.884 21.3875 587.884 21.3592 587.884 21.3278C592.728 21.3278 597.572 21.3278 602.397 21.3278ZM560.646 20.4012C560.628 20.3541 560.59 20.307 560.572 20.2599C562.808 20.4546 564.54 20.1311 566.589 20.1468C566.72 20.1468 566.832 20.1813 566.943 20.2002C567.037 20.219 567.13 20.2379 567.223 20.263C566.943 20.2976 566.72 20.3258 566.31 20.373C566.813 20.4201 567.204 20.4578 567.596 20.4923C567.484 20.53 567.353 20.5677 567.242 20.6054C565.043 20.5331 562.845 20.4672 560.646 20.4012ZM641.242 6.25074C642.061 6.34497 642.844 6.43921 643.645 6.53344C643.626 6.55543 643.608 6.57741 643.589 6.5994C641.931 6.58055 640.292 6.56171 638.633 6.54286C638.652 6.51773 638.652 6.4926 638.671 6.46747C639.118 6.41721 639.565 6.36696 640.143 6.30728C639.565 6.25703 639.192 6.22561 638.41 6.15651C639.9 6.11882 640.981 5.92722 641.726 6.22876C641.558 6.23818 641.372 6.2476 641.242 6.25074ZM632.318 9.94148C632.318 9.9195 632.318 9.90065 632.336 9.87867C633.566 9.90694 634.796 9.9352 636.025 9.96033C637.106 9.98232 638.019 10.0577 638.019 10.2807C638.019 10.3938 637.534 10.5037 637.273 10.6168C636.808 10.2744 635.671 10.2713 634.274 10.3027C633.678 10.3153 633.007 10.2462 632.392 10.2148C632.411 10.1959 632.43 10.1771 632.448 10.1582C634.05 10.1802 635.653 10.1991 637.255 10.221C637.273 10.1928 637.311 10.1645 637.329 10.1362C635.653 10.0703 633.976 10.0043 632.318 9.94148ZM23.4185 16.2833C23.4371 16.255 23.4371 16.2299 23.4557 16.2016C27.8339 16.2519 32.1934 16.3021 36.5716 16.3555C36.553 16.3963 36.5343 16.434 36.5157 16.4749C32.1375 16.4089 27.778 16.3461 23.4185 16.2833ZM521.15 1.63651C521.15 1.66164 521.15 1.68678 521.131 1.7119C518.039 1.7119 514.946 1.7119 511.853 1.7119C514.927 1.54543 518.02 1.51087 521.15 1.63651ZM436.325 23.9538C436.344 23.9349 436.363 23.9161 436.381 23.8972C438.896 23.8972 441.411 23.9098 443.927 23.8909C445.138 23.8815 445.436 23.9914 445.734 24.1202C442.529 24.0637 439.437 24.0103 436.325 23.9538ZM412.925 24.2082C410.317 24.2553 407.69 24.2993 405.082 24.3464C405.063 24.3024 405.045 24.2553 405.008 24.2113C407.653 24.1548 410.299 24.0982 412.925 24.0417C412.925 24.1516 412.925 24.205 412.925 24.2082ZM372.199 24.1202C371.305 24.2239 370.839 24.2773 370.374 24.3338C370.392 24.3464 370.429 24.3589 370.448 24.3715C370.877 24.3527 371.305 24.337 371.734 24.3181C372.032 24.3935 372.311 24.4626 372.814 24.5914C371.193 24.5223 369.945 24.4689 368.976 24.428C368.715 24.3118 368.548 24.2302 368.306 24.1234C369.479 24.1202 370.634 24.1202 372.199 24.1202ZM367.803 24.1485C366.834 24.4312 364.561 24.4972 362.94 24.3495C363.611 24.3275 364.114 24.3087 364.617 24.2898C364.617 24.2773 364.598 24.2616 364.598 24.249C364.188 24.2427 363.76 24.2364 363.35 24.2302C363.35 24.2019 363.368 24.1768 363.368 24.1485C364.71 24.1485 366.07 24.1485 367.803 24.1485ZM586.077 2.72646C586.058 2.69819 586.058 2.66993 586.04 2.64166C588.555 2.64166 591.07 2.64166 593.585 2.64166C593.585 2.66993 593.585 2.69819 593.585 2.72646C591.089 2.72646 588.573 2.72646 586.077 2.72646ZM199.253 23.8532C197.203 23.7998 195.359 23.7527 193.701 23.7087C196.291 23.7087 199.066 23.7087 201.824 23.7087C201.824 23.7307 201.824 23.7527 201.805 23.7747C200.874 23.803 199.905 23.8312 199.253 23.8532ZM602.043 6.67164C600.571 6.73132 599.584 6.7753 598.578 6.81613C598.969 6.73761 599.454 6.71562 599.863 6.6685C600.199 6.63081 600.46 6.56485 600.944 6.47376C599.659 6.45491 598.559 6.43606 597.46 6.42035C597.479 6.39209 597.479 6.36382 597.497 6.33555C599.1 6.3544 600.702 6.37324 602.695 6.39523C601.987 6.47062 601.596 6.51144 601.112 6.56484C601.391 6.59939 601.596 6.62138 602.043 6.67164ZM553.604 3.91378C552.617 3.87923 552.076 3.87295 551.573 3.84154C551.219 3.81956 550.94 3.76302 550.623 3.72218C551.014 3.70648 551.424 3.67192 551.816 3.6782C552.393 3.68763 552.971 3.72532 553.53 3.75045C553.548 3.73161 553.567 3.71276 553.604 3.69077C553.399 3.67192 553.194 3.65622 552.989 3.63738C553.064 3.61225 553.157 3.58711 553.231 3.56199C553.921 3.64051 554.61 3.72219 555.318 3.80385C554.48 3.85725 553.828 3.90122 553.604 3.91378ZM68.5414 2.56311C68.5228 2.59452 68.5042 2.62907 68.4855 2.66048C66.4175 2.6008 64.2751 2.69818 62.2257 2.59766C62.2443 2.55683 62.2629 2.51914 62.2816 2.4783C64.3682 2.50972 66.4548 2.53484 68.5414 2.56311ZM449.926 24.0888C449.907 24.0637 449.888 24.0417 449.87 24.0166C452.925 24.0166 455.999 24.0166 459.054 24.0166C459.054 24.0417 459.054 24.0637 459.054 24.0888C456.018 24.0888 452.981 24.0888 449.926 24.0888ZM634.684 6.7753C635.41 6.86011 636.379 6.97319 637.218 7.07056C636.565 7.1271 636.23 7.18364 635.858 7.18678C635.373 7.19306 634.833 7.16793 634.367 7.13966C634.199 7.13024 633.994 7.058 634.05 7.02344C634.144 6.9512 634.386 6.88524 634.684 6.7753ZM619.425 5.41521C617.656 5.37124 615.681 5.32412 613.52 5.27073C616.072 5.07598 618.121 5.14508 619.425 5.41521ZM639.49 11.0786C638.242 11.1571 637.124 11.2293 636.007 11.3016C635.969 11.2859 635.932 11.2733 635.895 11.2576C636.118 11.2262 636.342 11.1948 636.528 11.1696C636.174 11.0754 635.858 10.9843 635.485 10.8869C636.752 10.9466 637.888 11 639.49 11.0786ZM184.628 23.3192C184.628 23.3381 184.628 23.3569 184.628 23.3726C182.355 23.3726 180.063 23.3726 177.79 23.3726C177.79 23.3538 177.79 23.335 177.79 23.3192C180.063 23.3192 182.355 23.3192 184.628 23.3192ZM569.552 15.3221C569.57 15.2876 569.589 15.2499 569.608 15.2153C572.588 15.2436 575.588 15.275 578.569 15.3033C578.569 15.3096 578.569 15.3158 578.55 15.3221C575.569 15.3221 572.551 15.3221 569.552 15.3221ZM571.806 4.28129C573.557 4.28129 575.122 4.28129 576.724 4.28129C576.017 4.50117 573.613 4.50431 571.806 4.28129ZM405.455 24.0731C404.728 24.3087 403.852 24.3778 402.66 24.3024C402.399 24.2867 402.157 24.227 402.064 24.1768C402.027 24.1548 402.399 24.0825 402.604 24.0794C403.498 24.0668 404.393 24.0731 405.455 24.0731ZM133.58 23.1088C136.04 23.1088 138.052 23.1088 140.064 23.1088C140.045 23.1402 140.026 23.1748 140.008 23.2062C137.958 23.1905 135.853 23.291 133.58 23.1088ZM613.352 18.8778C613.333 18.9155 613.315 18.9532 613.277 18.9909C611.191 18.95 609.123 18.9061 607.036 18.8652C607.055 18.8338 607.073 18.8024 607.092 18.7742C609.179 18.8087 611.265 18.8433 613.352 18.8778ZM364.654 23.9443C364.635 23.9695 364.635 23.9914 364.617 24.0166C362.381 24.0103 360.108 24.0637 357.928 23.9443C360.183 23.9443 362.418 23.9443 364.654 23.9443ZM586.338 16.0571C586.338 16.076 586.338 16.0948 586.338 16.1137C584.214 16.1137 582.09 16.1137 579.985 16.1137C579.985 16.0948 579.985 16.076 580.003 16.0571C582.109 16.0571 584.214 16.0571 586.338 16.0571ZM337.901 24.516C339.708 24.4563 341.44 24.2145 343.341 24.4155C341.534 24.45 339.726 24.4814 337.901 24.516ZM230.31 1.94747C230.31 1.92234 230.31 1.89721 230.291 1.87208C232.527 1.87208 234.744 1.87208 236.979 1.87208C236.979 1.89721 236.979 1.92234 236.979 1.94747C234.762 1.94747 232.545 1.94747 230.31 1.94747ZM632.113 6.26016C632.057 6.29785 631.982 6.33869 631.927 6.37639C630.268 6.28216 628.61 6.18478 626.952 6.09055C627.008 6.05914 627.064 6.02459 627.12 5.99318C628.778 6.08113 630.455 6.17221 632.113 6.26016ZM428.687 1.44805C431.016 1.31927 431.556 1.3601 431.798 1.64907C430.829 1.64907 429.879 1.64907 428.612 1.64907C429.171 1.60824 429.413 1.5894 429.861 1.55485C429.376 1.51087 429.097 1.48574 428.687 1.44805ZM588.555 20.9855C590.492 20.9697 592.337 20.954 594.181 20.9383C593.529 21.1142 590.548 21.1394 588.555 20.9855ZM609.309 16.5785C609.346 16.61 609.365 16.6445 609.402 16.6759C607.632 16.7639 605.881 16.6476 604.111 16.5785C605.825 16.5785 607.577 16.5785 609.309 16.5785ZM638.205 9.71533C639.099 9.71533 639.919 9.71533 640.739 9.71533C640.795 9.7436 640.85 9.77501 640.888 9.80328C640.143 9.87552 639.397 9.94776 638.54 10.0294C638.391 9.87552 638.298 9.80328 638.205 9.71533ZM449.926 1.63651C451.472 1.6208 453.018 1.60196 454.825 1.58312C453.167 1.90665 451.491 1.64593 449.926 1.63651ZM250.859 1.88779C250.878 1.90664 250.878 1.92548 250.896 1.94433C248.717 1.94433 246.518 1.94433 244.338 1.94433C244.338 1.92548 244.338 1.90664 244.357 1.88779C246.5 1.88779 248.679 1.88779 250.859 1.88779ZM233.291 23.8438C233.291 23.8658 233.291 23.8878 233.272 23.9066C230.906 23.9066 228.558 23.9066 226.192 23.9066C226.192 23.8846 226.192 23.8627 226.192 23.8438C228.577 23.8438 230.925 23.8438 233.291 23.8438ZM607.968 5.16707C607.968 5.11682 607.968 5.06341 607.968 5.01316C609.384 5.03514 610.781 5.054 612.197 5.07598C612.197 5.10739 612.178 5.13881 612.178 5.16707C610.762 5.16707 609.365 5.16707 607.968 5.16707ZM34.0565 18.2276C35.6773 18.0611 38.1365 18.0957 39.2916 18.2778C37.5963 18.2621 35.9754 18.2464 34.0565 18.2276ZM354.463 1.61453C354.463 1.63965 354.463 1.66478 354.463 1.68991C352.824 1.68991 351.184 1.68991 349.526 1.68991C349.526 1.66478 349.526 1.63965 349.526 1.61453C351.184 1.61453 352.824 1.61453 354.463 1.61453ZM159.719 1.77785C160.762 1.70246 161.731 1.41034 163.296 1.71817C161.861 1.7433 160.781 1.759 159.719 1.77785ZM581.214 16.7073C581.214 16.7387 581.196 16.7733 581.196 16.8047C579.407 16.7796 577.637 16.7545 575.849 16.7325C575.867 16.7042 575.867 16.6759 575.886 16.6508C577.656 16.6696 579.426 16.6885 581.214 16.7073ZM355.581 24.3118C355.581 24.2993 355.581 24.2867 355.581 24.2741C356.811 24.2396 358.04 24.2082 359.214 24.1768C359.233 24.2364 359.27 24.315 359.307 24.3966C358.04 24.3652 356.811 24.337 355.581 24.3118ZM354.687 1.84696C354.687 1.86581 354.687 1.88465 354.687 1.9035C353.047 1.9035 351.408 1.9035 349.787 1.9035C349.787 1.88465 349.787 1.86581 349.787 1.84696C351.408 1.84696 353.047 1.84696 354.687 1.84696ZM594.982 15.1871C594.982 15.2122 594.982 15.2342 594.982 15.2593C593.734 15.2593 592.486 15.2593 591.219 15.2593C591.219 15.2342 591.219 15.2122 591.219 15.1871C592.467 15.1871 593.734 15.1871 594.982 15.1871ZM599.826 16.8078C599.826 16.8267 599.826 16.8455 599.845 16.8644C598.615 16.8424 597.386 16.8173 595.932 16.7921C596.771 16.7042 597.311 16.6445 597.553 16.6194C598.429 16.6916 599.118 16.7513 599.826 16.8078ZM412.851 23.8784C414.826 23.8784 416.428 23.8784 418.366 23.8784C417.714 23.9852 417.378 24.0417 416.95 24.1139C416.149 23.7213 414.36 24.0103 412.851 23.8784ZM145.243 2.35894C145.243 2.33382 145.243 2.30869 145.243 2.28356C146.938 2.28356 148.652 2.28356 150.348 2.28356C150.348 2.29299 150.348 2.30241 150.348 2.31183C148.652 2.32754 146.938 2.34324 145.243 2.35894ZM299.242 24.1736C297.603 24.2773 295.982 24.3244 294.138 24.0982C296.131 24.1265 297.677 24.1485 299.242 24.1736ZM640.552 5.64451C640.497 5.66964 640.441 5.69791 640.385 5.72304C639.211 5.64766 637.739 5.69791 637.069 5.40579C638.224 5.48432 639.379 5.56599 640.552 5.64451ZM576.035 18.0548C576.035 18.036 576.035 18.0172 576.054 18.0014C577.749 18.0014 579.463 18.0014 581.159 18.0014C581.159 18.0203 581.14 18.0391 581.14 18.0548C579.426 18.0548 577.731 18.0548 576.035 18.0548ZM618.68 17.9166C618.662 17.8821 618.662 17.8475 618.643 17.8098C619.873 17.7973 621.102 17.7847 622.332 17.7722C622.35 17.8004 622.35 17.8287 622.369 17.857C621.139 17.8789 619.91 17.8978 618.68 17.9166ZM606.775 2.89294C604.074 3.10653 603.571 3.10339 602.714 2.89294C603.962 2.89294 605.285 2.89294 606.775 2.89294ZM604.875 14.873C604.875 14.9106 604.875 14.9452 604.875 14.9829C603.534 14.9515 602.192 14.9201 600.851 14.8887C600.87 14.8572 600.907 14.8227 600.925 14.7913C602.248 14.8164 603.552 14.8447 604.875 14.873ZM366.182 23.9946C366.182 23.9757 366.2 23.9569 366.2 23.938C367.784 23.938 369.349 23.938 370.932 23.938C370.932 23.9569 370.932 23.9757 370.914 23.9946C369.33 23.9946 367.747 23.9946 366.182 23.9946ZM624.232 16.6665C624.232 16.7042 624.214 16.7387 624.214 16.7764C623.058 16.7576 621.922 16.7387 620.767 16.7199C620.785 16.6759 620.823 16.6288 620.841 16.5848C621.959 16.6131 623.096 16.6382 624.232 16.6665ZM479.809 1.21561C479.324 1.47946 478.244 1.37581 477.163 1.36953C477.685 1.07427 478.952 1.26901 479.809 1.21561ZM585.425 2.58198C585.406 2.61653 585.406 2.65422 585.388 2.68877C584.307 2.68877 583.226 2.68877 582.146 2.68877C582.146 2.66364 582.165 2.63852 582.165 2.61339C583.264 2.60397 584.344 2.59454 585.425 2.58198ZM617.916 11.5246C617.861 11.5686 617.786 11.6094 617.73 11.6534C616.65 11.6188 615.55 11.5811 614.47 11.5466C614.507 11.512 614.544 11.4806 614.6 11.4461C615.699 11.4712 616.799 11.4995 617.916 11.5246ZM338.441 1.83439C338.422 1.79042 338.385 1.74958 338.366 1.70561C339.317 1.69304 340.267 1.68048 341.217 1.67106C341.235 1.71504 341.254 1.759 341.254 1.80298C340.323 1.8124 339.372 1.82497 338.441 1.83439ZM405.361 1.52343C405.38 1.49516 405.38 1.47003 405.399 1.44176C407.131 1.45747 408.864 1.47632 410.578 1.49202C410.559 1.50144 410.559 1.51087 410.541 1.52343C408.827 1.52343 407.094 1.52343 405.361 1.52343ZM610.278 16.3241C610.278 16.3587 610.297 16.3932 610.297 16.4278C608.601 16.4278 606.887 16.4278 605.192 16.4278C605.192 16.4152 605.192 16.4027 605.192 16.3869C606.869 16.365 608.564 16.343 610.278 16.3241ZM316.681 1.84381C316.699 1.88151 316.718 1.91921 316.736 1.9569C315.656 1.9569 314.575 1.9569 313.495 1.9569C313.476 1.93491 313.476 1.91606 313.457 1.89407C314.519 1.87837 315.6 1.85952 316.681 1.84381ZM180.212 1.36637C180.194 1.34438 180.194 1.31925 180.175 1.29727C181.535 1.29727 182.914 1.29727 184.274 1.29727C184.274 1.31925 184.274 1.34438 184.274 1.36637C182.914 1.36637 181.572 1.36637 180.212 1.36637Z" fill="url(#paint0_linear_6620_810)"/>
<defs>
<linearGradient id="paint0_linear_6620_810" x1="637.3" y1="25.0033" x2="419.286" y2="-287.639" gradientUnits="userSpaceOnUse">
<stop stop-color="#FDD925"/>
<stop offset="0.294518" stop-color="#FF9559"/>
<stop offset="0.682384" stop-color="#7C91FF"/>
<stop offset="1" stop-color="#7E33FF"/>
</linearGradient>
</defs>
</svg>
